<svg width="792" height="280" viewBox="0 0 792 280" fill="none" xmlns="http://www.w3.org/2000/svg">
<g opacity="0.05">
<path d="M571 105.176L535.938 70.1L501.137 35.3893L466.102 0.31318L430.962 35.3893L413.444 52.91L448.471 87.96L466.093 70.4393L500.807 105.176L396.048 209.883L291.15 105.176L326.316 70.1L343.825 87.6468L378.843 52.5707L326.324 0L221 105.176L256.131 140.217L360.89 244.959L396.057 280L431.084 244.959L535.947 140.217L571 105.176Z" fill="#858585"/>
<path d="M273 180.101L252.965 160.057L233.079 140.222L213.058 120.179L192.978 140.222L182.968 150.234L202.983 170.263L213.053 160.251L232.89 180.101L173.027 239.933L113.085 180.101L133.18 160.057L143.186 170.084L163.196 150.04L133.185 120L73 180.101L93.075 200.124L152.937 259.976L173.032 280L193.048 259.976L252.97 200.124L273 180.101Z" fill="#858585"/>
<path d="M100 230.05L89.9824 220.029L80.0393 210.111L70.0291 200.089L59.9891 210.111L54.984 215.117L64.9917 225.131L70.0266 220.126L79.9448 230.05L50.0137 259.966L20.0427 230.05L30.0902 220.029L35.0928 225.042L45.098 215.02L30.0927 200L0 230.05L10.0375 240.062L39.9687 269.988L50.0161 280L60.0239 269.988L89.9849 240.062L100 230.05Z" fill="#858585"/>
<path d="M519 180.101L539.035 160.057L558.921 140.222L578.942 120.179L599.022 140.222L609.032 150.234L589.017 170.263L578.947 160.251L559.11 180.101L618.973 239.933L678.915 180.101L658.82 160.057L648.814 170.084L628.804 150.04L658.815 120L719 180.101L698.925 200.124L639.063 259.976L618.968 280L598.952 259.976L539.03 200.124L519 180.101Z" fill="#858585"/>
<path d="M692 230.05L702.018 220.029L711.961 210.111L721.971 200.089L732.011 210.111L737.016 215.117L727.008 225.131L721.973 220.126L712.055 230.05L741.986 259.966L771.957 230.05L761.91 220.029L756.907 225.042L746.902 215.02L761.907 200L792 230.05L781.962 240.062L752.031 269.988L741.984 280L731.976 269.988L702.015 240.062L692 230.05Z" fill="#858585"/>
</g>
</svg>
