<svg width="40" height="40" viewBox="0 0 40 40" fill="none" xmlns="http://www.w3.org/2000/svg">
<path d="M31.667 3.33301L23.3337 10.833V29.1663L31.667 21.6663V3.33301ZM10.8337 8.33301C7.58366 8.33301 4.08366 8.99967 1.66699 10.833V35.2663C1.66699 35.683 2.08366 36.0997 2.50033 36.0997C2.66699 36.0997 2.75033 35.983 2.91699 35.983C5.16699 34.8997 8.41699 34.1663 10.8337 34.1663C14.0837 34.1663 17.5837 34.833 20.0003 36.6663C22.2503 35.2497 26.3337 34.1663 29.167 34.1663C31.917 34.1663 34.7503 34.683 37.0837 35.933C37.2503 36.0163 37.3337 35.983 37.5003 35.983C37.917 35.983 38.3337 35.5663 38.3337 35.1497V10.833C37.3337 10.083 36.2503 9.58301 35.0003 9.16634V31.6663C33.167 31.083 31.167 30.833 29.167 30.833C26.3337 30.833 22.2503 31.9163 20.0003 33.333V10.833C17.5837 8.99967 14.0837 8.33301 10.8337 8.33301Z" fill="#F9F9F9"/>
</svg>
