<svg width="32" height="32" viewBox="0 0 32 32" fill="none" xmlns="http://www.w3.org/2000/svg">
<path d="M7.33398 7.06662C7.33398 6.22655 7.33398 5.80651 7.49747 5.48564C7.64128 5.2034 7.87076 4.97393 8.153 4.83012C8.47387 4.66663 8.89391 4.66663 9.73398 4.66663H17.0065C17.3734 4.66663 17.5569 4.66663 17.7295 4.70807C17.8826 4.74482 18.0289 4.80542 18.1631 4.88767C18.3145 4.98043 18.4442 5.11014 18.7036 5.36957L23.9644 10.6303C24.2238 10.8898 24.3535 11.0195 24.4463 11.1709C24.5285 11.3051 24.5891 11.4514 24.6259 11.6044C24.6673 11.7771 24.6673 11.9605 24.6673 12.3274V24.9333C24.6673 25.7734 24.6673 26.1934 24.5038 26.5143C24.36 26.7965 24.1305 27.026 23.8483 27.1698C23.5274 27.3333 23.1074 27.3333 22.2673 27.3333H9.73398C8.89391 27.3333 8.47387 27.3333 8.153 27.1698C7.87076 27.026 7.64128 26.7965 7.49747 26.5143C7.33398 26.1934 7.33398 25.7734 7.33398 24.9333V7.06662Z" stroke="#004CA6"/>
<path d="M16.666 4.66663V10.2666C16.666 11.1067 16.666 11.5267 16.8295 11.8476C16.9733 12.1299 17.2028 12.3593 17.485 12.5031C17.8059 12.6666 18.2259 12.6666 19.066 12.6666H24.666" stroke="#004CA6"/>
</svg>
