<?xml version="1.0" encoding="UTF-8"?>
<!DOCTYPE svg PUBLIC "-//W3C//DTD SVG 1.1//EN" "http://www.w3.org/Graphics/SVG/1.1/DTD/svg11.dtd">
<svg xmlns="http://www.w3.org/2000/svg" version="1.1" width="100%" overflow="visible"  viewBox="start-x-axis start-y-axis width height" height="100%" style="shape-rendering:geometricPrecision; text-rendering:geometricPrecision; image-rendering:optimizeQuality; fill-rule:evenodd; clip-rule:evenodd" xmlns:xlink="http://www.w3.org/1999/xlink">
<g><path style="opacity:0.749" fill="#232225" d="M 365.5,699.5 C 354.5,699.5 343.5,699.5 332.5,699.5C 207.095,689.412 111.595,631.079 46,524.5C 18.046,474.666 2.54597,421.333 -0.5,364.5C -0.5,354.833 -0.5,345.167 -0.5,335.5C 8.28011,213.07 63.9468,118.57 166.5,52C 258.755,-2.02711 356.088,-13.3604 458.5,18C 555.644,52.1429 625.811,115.976 669,209.5C 708.885,305.095 708.218,400.428 667,495.5C 626.194,579.97 562.36,640.136 475.5,676C 439.858,689.293 403.191,697.127 365.5,699.5 Z"/></g>
<g><path style="opacity:1" fill="#0294d8" d="M 386.5,693.5 C 386.5,692.167 386.5,690.833 386.5,689.5C 402.212,679.861 406.379,666.527 399,649.5C 394.63,645.298 390.463,640.964 386.5,636.5C 386.5,631.167 386.5,625.833 386.5,620.5C 399.358,622.184 409.858,628.184 418,638.5C 419.178,641.533 420.844,644.199 423,646.5C 520.725,622.434 592.058,565.434 637,475.5C 653.096,442.121 658.43,407.121 653,370.5C 645.222,337.432 627.388,311.265 599.5,292C 588.615,285.057 577.281,278.89 565.5,273.5C 576.64,270.868 582.307,263.868 582.5,252.5C 578.818,252.335 575.152,252.501 571.5,253C 565.261,256.079 558.928,258.912 552.5,261.5C 551.833,261.167 551.167,260.833 550.5,260.5C 554.357,254.476 559.357,249.643 565.5,246C 583.487,237.011 600.82,227.011 617.5,216C 629.937,202.236 633.437,186.402 628,168.5C 617.557,147.686 601.391,140.853 579.5,148C 576.061,150.527 573.061,153.527 570.5,157C 572.598,156.968 574.598,156.301 576.5,155C 586.967,152.486 595.3,155.486 601.5,164C 589.795,164.258 582.462,169.758 579.5,180.5C 587.438,176.31 595.771,175.476 604.5,178C 613.427,183.666 615.927,191.499 612,201.5C 610.333,203.833 608.667,206.167 607,208.5C 605.267,210.602 603.267,210.935 601,209.5C 600.174,201.347 595.841,196.347 588,194.5C 587.167,194.833 586.333,195.167 585.5,195.5C 589.653,203.978 589.486,212.312 585,220.5C 582.926,222.452 580.759,224.285 578.5,226C 568.841,230.828 559.508,236.161 550.5,242C 545.934,246.566 541.434,251.066 537,255.5C 532.871,254.88 528.705,254.547 524.5,254.5C 512.867,255.9 501.2,256.4 489.5,256C 482.135,253.143 478.301,247.643 478,239.5C 473.994,245.896 473.494,252.563 476.5,259.5C 474.235,260.647 471.902,260.814 469.5,260C 465.445,257.399 461.945,254.232 459,250.5C 460.137,256.559 462.471,262.226 466,267.5C 472.106,274.092 479.606,276.258 488.5,274C 498.922,270.859 509.255,267.526 519.5,264C 523.833,263.333 528.167,263.333 532.5,264C 527.681,266.051 522.681,267.718 517.5,269C 514.783,273.384 511.116,276.718 506.5,279C 496.547,284.763 486.214,289.763 475.5,294C 474.208,296.709 473.208,299.542 472.5,302.5C 474.57,307.045 476.237,311.711 477.5,316.5C 479.527,316.338 481.527,316.505 483.5,317C 484.774,318.221 486.274,319.054 488,319.5C 500.3,312.908 513.134,311.742 526.5,316C 516.778,322.663 512.778,331.83 514.5,343.5C 517.102,339.732 520.435,337.232 524.5,336C 515.557,344.122 513.057,353.955 517,365.5C 518.413,362.339 520.08,359.339 522,356.5C 523.599,354.964 525.433,354.464 527.5,355C 519.024,366.786 517.19,379.62 522,393.5C 525.805,385.029 531.972,381.529 540.5,383C 533.881,404.622 520.881,421.288 501.5,433C 492.446,438.194 483.112,442.861 473.5,447C 455.575,453.531 437.575,459.864 419.5,466C 409.503,469.826 405.669,476.993 408,487.5C 410.262,496.288 412.929,504.954 416,513.5C 419.042,528.247 413.542,538.414 399.5,544C 396.183,544.498 392.85,544.665 389.5,544.5C 388.209,544.737 387.209,544.404 386.5,543.5C 386.5,508.5 386.5,473.5 386.5,438.5C 407.694,410.604 407.694,382.604 386.5,354.5C 386.5,354.167 386.5,353.833 386.5,353.5C 386.667,325.498 386.5,297.498 386,269.5C 376.585,262.836 372.085,253.67 372.5,242C 372.197,230.665 376.53,221.832 385.5,215.5C 386.498,184.004 386.832,152.338 386.5,120.5C 361.833,120.5 337.167,120.5 312.5,120.5C 312.168,152.338 312.502,184.004 313.5,215.5C 322.098,222.068 326.431,230.901 326.5,242C 326.227,248.476 324.727,254.642 322,260.5C 319.974,264.026 317.141,266.693 313.5,268.5C 312.503,276.138 312.169,283.804 312.5,291.5C 310.801,291.66 309.134,291.494 307.5,291C 286.182,279.507 264.515,268.84 242.5,259C 265.437,278.449 288.771,297.282 312.5,315.5C 312.5,315.833 312.5,316.167 312.5,316.5C 312.5,371.5 312.5,426.5 312.5,481.5C 312.5,481.833 312.5,482.167 312.5,482.5C 297.658,500.356 292.992,520.69 298.5,543.5C 287.437,544.526 276.77,543.026 266.5,539C 250.945,529.08 246.445,515.58 253,498.5C 257.439,494.062 261.106,489.062 264,483.5C 264.667,480.5 264.667,477.5 264,474.5C 258.076,462.237 249.576,452.071 238.5,444C 218.962,430.396 199.962,416.062 181.5,401C 173.985,393.652 166.652,386.152 159.5,378.5C 172.29,362.808 171.29,347.974 156.5,334C 153.661,332.08 150.661,330.413 147.5,329C 160.478,327.739 169.978,332.906 176,344.5C 178.27,349.644 179.937,354.978 181,360.5C 189.579,334.504 182.079,314.671 158.5,301C 152.282,298.058 145.949,295.391 139.5,293C 144.833,292.333 150.167,292.333 155.5,293C 165.192,295.231 174.692,298.064 184,301.5C 186.951,300.086 190.118,299.253 193.5,299C 196.467,295.235 198.467,291.068 199.5,286.5C 199.343,283.381 198.676,280.381 197.5,277.5C 184.5,268 171.5,258.5 158.5,249C 160.134,248.506 161.801,248.34 163.5,248.5C 162.078,240.922 157.412,236.755 149.5,236C 147.167,235.667 144.833,235.333 142.5,235C 147.194,229.538 148.527,223.371 146.5,216.5C 139.697,220.804 133.03,225.304 126.5,230C 107.962,228.124 89.9623,230.458 72.5,237C 39.6763,251.812 26.843,276.979 34,312.5C 36.1711,319.013 38.3378,325.513 40.5,332C 32.7418,360.101 32.5751,388.267 40,416.5C 52.7225,462.146 74.3892,502.813 105,538.5C 136.116,575.3 173.282,604.133 216.5,625C 230.301,631.212 244.635,635.712 259.5,638.5C 260.833,638.333 262.167,638.167 263.5,638C 270.027,628.803 278.361,621.803 288.5,617C 296.679,614.785 304.679,615.285 312.5,618.5C 312.5,618.833 312.5,619.167 312.5,619.5C 312.5,632.833 312.5,646.167 312.5,659.5C 309.231,659.116 306.397,657.782 304,655.5C 301.229,651.196 299.229,646.529 298,641.5C 290.147,655.847 292.647,668.014 305.5,678C 307.74,678.977 310.073,679.477 312.5,679.5C 312.5,684.5 312.5,689.5 312.5,694.5C 192.815,678.218 103.315,617.884 44,513.5C 1.85882,432.23 -7.80784,347.23 15,258.5C 47.7705,150.459 115.937,73.9586 219.5,29C 291.346,1.11527 364.679,-3.21807 439.5,16C 547.975,48.4896 624.808,116.656 670,220.5C 696.354,286.708 702.02,354.708 687,424.5C 662.275,525.844 604.775,602.344 514.5,654C 474.38,675.541 431.713,688.708 386.5,693.5 Z"/></g>
<g><path style="opacity:1" fill="#f9fcfd" d="M 347.5,35.5 C 350.964,38.4625 354.297,41.6291 357.5,45C 354.62,48.2171 351.453,51.0505 348,53.5C 344.547,51.0505 341.38,48.2171 338.5,45C 341.704,41.9641 344.704,38.7974 347.5,35.5 Z"/></g>
<g><path style="opacity:1" fill="#f6fbfd" d="M 287.5,41.5 C 291.291,44.1181 294.957,46.9514 298.5,50C 295.877,53.412 293.377,56.912 291,60.5C 287.128,57.9998 283.628,55.1665 280.5,52C 282.714,48.4021 285.047,44.9021 287.5,41.5 Z"/></g>
<g><path style="opacity:1" fill="#f7fbfd" d="M 406.5,42.5 C 407.552,42.3505 408.552,42.5172 409.5,43C 411.833,46 414.167,49 416.5,52C 413,54.8333 409.5,57.6667 406,60.5C 403.097,57.2677 400.597,53.7677 398.5,50C 400.998,47.3357 403.665,44.8357 406.5,42.5 Z"/></g>
<g><path style="opacity:1" fill="#f8fbfd" d="M 336.5,46.5 C 339.964,49.4625 343.297,52.6291 346.5,56C 343.333,59.1667 340.167,62.3333 337,65.5C 335.978,64.646 335.145,63.646 334.5,62.5C 336.316,60.1831 338.316,58.0165 340.5,56C 338.316,53.9835 336.316,51.8169 334.5,49.5C 335.193,48.4822 335.859,47.4822 336.5,46.5 Z"/></g>
<g><path style="opacity:1" fill="#ebf6fb" d="M 357.5,47.5 C 359.635,47.147 360.968,47.9803 361.5,50C 360.224,52.2806 358.557,54.2806 356.5,56C 358.046,58.2568 359.712,60.4235 361.5,62.5C 360.855,63.646 360.022,64.646 359,65.5C 355.783,62.6195 352.95,59.4529 350.5,56C 352.654,53.0132 354.987,50.1798 357.5,47.5 Z"/></g>
<g><path style="opacity:1" fill="#f1f9fc" d="M 299.5,51.5 C 301.346,51.2222 302.68,51.8888 303.5,53.5C 302.167,55.8333 300.833,58.1667 299.5,60.5C 301.806,62.1394 303.806,64.1394 305.5,66.5C 305.113,67.7199 304.28,68.3865 303,68.5C 299.209,66.7004 296.043,64.2004 293.5,61C 295.629,57.9061 297.629,54.7394 299.5,51.5 Z"/></g>
<g><path style="opacity:1" fill="#f1f8fc" d="M 394.5,51.5 C 396.017,51.5106 397.184,52.1772 398,53.5C 400.029,56.0292 401.862,58.6959 403.5,61.5C 400.128,64.2765 396.628,66.9432 393,69.5C 392.044,68.4214 391.211,67.2547 390.5,66C 392.977,64.3573 395.31,62.524 397.5,60.5C 396.079,57.9906 394.412,55.6572 392.5,53.5C 393.243,52.8182 393.909,52.1515 394.5,51.5 Z"/></g>
<g><path style="opacity:1" fill="#f7fbfd" d="M 331.5,51.5 C 338.689,53.966 339.022,56.966 332.5,60.5C 330.684,59.1851 329.017,57.6851 327.5,56C 329.041,54.6288 330.375,53.1288 331.5,51.5 Z"/></g>
<g><path style="opacity:1" fill="#fafcfe" d="M 362.5,51.5 C 369.321,53.7439 369.821,56.7439 364,60.5C 362.5,59 361,57.5 359.5,56C 361.141,54.871 362.141,53.371 362.5,51.5 Z"/></g>
<g><path style="opacity:1" fill="#f1f8fc" d="M 277.5,54.5 C 281.824,56.6632 285.824,59.3299 289.5,62.5C 287.157,66.3358 284.324,69.6691 281,72.5C 279.72,72.3865 278.887,71.7199 278.5,70.5C 279.921,67.9906 281.588,65.6572 283.5,63.5C 281.476,61.6419 279.309,59.9752 277,58.5C 276.805,57.1807 276.972,55.8474 277.5,54.5 Z"/></g>
<g><path style="opacity:1" fill="#eef7fc" d="M 305.5,54.5 C 307.649,55.7476 309.649,57.2476 311.5,59C 309.978,60.5218 308.478,62.0218 307,63.5C 305.205,62.7046 303.705,61.5379 302.5,60C 303.632,58.2355 304.632,56.4021 305.5,54.5 Z"/></g>
<g><path style="opacity:1" fill="#f3f9fd" d="M 388.5,55.5 C 391.468,55.6261 393.468,57.1261 394.5,60C 390.854,65.0023 387.854,64.669 385.5,59C 386.71,57.9609 387.71,56.7942 388.5,55.5 Z"/></g>
<g><path style="opacity:1" fill="#f1f8fc" d="M 416.5,54.5 C 418.384,54.7118 419.717,55.7118 420.5,57.5C 417.94,59.2733 415.607,61.2733 413.5,63.5C 414.651,65.8091 415.984,67.9758 417.5,70C 417.07,71.4341 416.236,72.6008 415,73.5C 412.006,70.1801 409.506,66.5134 407.5,62.5C 410.52,59.811 413.52,57.1444 416.5,54.5 Z"/></g>
<g><path style="opacity:1" fill="#f9fcfd" d="M 346.5,58.5 C 350.812,60.2895 354.479,63.1228 357.5,67C 354.333,70.1667 351.167,73.3333 348,76.5C 344.783,73.6195 341.95,70.4529 339.5,67C 341.654,64.0132 343.987,61.1798 346.5,58.5 Z"/></g>
<g><path style="opacity:1" fill="#fafcfd" d="M 230.5,59.5 C 234.822,60.9945 238.822,62.9945 242.5,65.5C 240.862,69.4598 238.862,73.1265 236.5,76.5C 232.475,74.8253 228.808,72.6586 225.5,70C 227.044,66.413 228.711,62.913 230.5,59.5 Z"/></g>
<g><path style="opacity:1" fill="#f8fcfd" d="M 463.5,59.5 C 464.675,59.281 465.675,59.6143 466.5,60.5C 468.167,63.8333 469.833,67.1667 471.5,70.5C 467.524,73.322 463.191,75.322 458.5,76.5C 457.531,72.392 455.864,68.5586 453.5,65C 457.056,63.3924 460.389,61.5591 463.5,59.5 Z"/></g>
<g><path style="opacity:1" fill="#f0f8fc" d="M 274.5,59.5 C 276.649,60.7476 278.649,62.2476 280.5,64C 279.12,65.9252 277.62,67.7585 276,69.5C 274.075,68.1196 272.241,66.6196 270.5,65C 271.965,63.2258 273.298,61.3925 274.5,59.5 Z"/></g>
<g><path style="opacity:1" fill="#eef7fc" d="M 420.5,59.5 C 427.192,63.1036 427.026,66.4369 420,69.5C 418.818,67.6564 417.651,65.8231 416.5,64C 418.018,62.6494 419.351,61.1494 420.5,59.5 Z"/></g>
<g><path style="opacity:1" fill="#f8fcfd" d="M 290.5,63.5 C 294.677,65.4259 298.344,68.0926 301.5,71.5C 299.494,75.5134 296.994,79.1801 294,82.5C 290.472,79.967 287.306,77.1336 284.5,74C 286.739,70.6045 288.739,67.1045 290.5,63.5 Z"/></g>
<g><path style="opacity:1" fill="#f7fbfd" d="M 404.5,63.5 C 407.879,66.5674 410.546,70.234 412.5,74.5C 409.621,77.193 406.454,79.5263 403,81.5C 399.676,78.6691 396.843,75.3358 394.5,71.5C 397.864,68.8249 401.197,66.1582 404.5,63.5 Z"/></g>
<g><path style="opacity:1" fill="#f1f9fc" d="M 244.5,66.5 C 246.346,66.2222 247.68,66.8888 248.5,68.5C 247.363,70.6068 246.363,72.7735 245.5,75C 247.375,76.8597 249.542,78.3597 252,79.5C 252.388,81.0758 251.888,82.4091 250.5,83.5C 246.475,81.8253 242.808,79.6586 239.5,77C 241.044,73.413 242.711,69.913 244.5,66.5 Z"/></g>
<g><path style="opacity:1" fill="#f3f9fd" d="M 449.5,66.5 C 450.675,66.281 451.675,66.6143 452.5,67.5C 454.167,70.8333 455.833,74.1667 457.5,77.5C 453.597,79.3682 449.764,81.3682 446,83.5C 445.044,82.4214 444.211,81.2547 443.5,80C 446.297,78.7674 448.963,77.2674 451.5,75.5C 449.226,72.6962 448.56,69.6962 449.5,66.5 Z"/></g>
<g><path style="opacity:1" fill="#f5fafd" d="M 250.5,69.5 C 257.123,70.0787 258.123,72.7454 253.5,77.5C 248.317,76.2531 247.317,73.5864 250.5,69.5 Z"/></g>
<g><path style="opacity:1" fill="#f2f9fc" d="M 443.5,69.5 C 449.604,72.329 449.604,74.9957 443.5,77.5C 441.812,75.9706 440.479,74.1373 439.5,72C 440.858,71.0656 442.192,70.2323 443.5,69.5 Z"/></g>
<g><path style="opacity:1" fill="#f1f8fc" d="M 223.5,73.5 C 227.608,74.4691 231.441,76.1358 235,78.5C 234.53,82.6274 233.03,86.4607 230.5,90C 228.681,90.7828 227.348,90.2828 226.5,88.5C 227.637,86.3932 228.637,84.2265 229.5,82C 228.133,79.8001 226.133,78.3001 223.5,77.5C 222.374,76.1916 222.374,74.8583 223.5,73.5 Z"/></g>
<g><path style="opacity:1" fill="#f2f9fc" d="M 470.5,73.5 C 472.59,73.4501 473.923,74.4501 474.5,76.5C 471.93,77.7018 469.43,79.0352 467,80.5C 467.418,83.5214 468.585,86.3547 470.5,89C 469.391,89.6377 468.225,90.1377 467,90.5C 464.341,87.1919 462.175,83.5252 460.5,79.5C 463.897,77.4741 467.23,75.4741 470.5,73.5 Z"/></g>
<g><path style="opacity:1" fill="#f6fbfd" d="M 220.5,79.5 C 227.428,79.6771 228.761,82.1771 224.5,87C 218.38,87.1559 217.046,84.6559 220.5,79.5 Z"/></g>
<g><path style="opacity:1" fill="#f2f9fc" d="M 474.5,78.5 C 480.003,82.7359 479.503,85.7359 473,87.5C 471.351,86.2139 470.185,84.5473 469.5,82.5C 471.015,80.9178 472.681,79.5845 474.5,78.5 Z"/></g>
<g><path style="opacity:1" fill="#fafcfd" d="M 237.5,80.5 C 242.059,81.4463 246.059,83.4463 249.5,86.5C 247.754,90.3267 245.754,93.9934 243.5,97.5C 239.54,95.8623 235.874,93.8623 232.5,91.5C 234.367,87.888 236.034,84.2213 237.5,80.5 Z"/></g>
<g><path style="opacity:1" fill="#f8fbfd" d="M 455.5,80.5 C 457.39,80.2965 458.89,80.9632 460,82.5C 460.973,85.7789 462.473,88.7789 464.5,91.5C 460.993,93.754 457.327,95.754 453.5,97.5C 450.804,93.9525 448.471,90.1192 446.5,86C 449.564,84.1412 452.564,82.3079 455.5,80.5 Z"/></g>
<g><path style="opacity:1" fill="#f9fcfd" d="M 179.5,84.5 C 183.86,85.0067 188.193,85.6734 192.5,86.5C 191.993,90.8595 191.327,95.1928 190.5,99.5C 186.111,99.361 181.944,98.361 178,96.5C 177.95,92.4586 178.45,88.4586 179.5,84.5 Z"/></g>
<g><path style="opacity:1" fill="#fafcfd" d="M 514.5,83.5 C 515.497,83.4701 516.164,83.9701 516.5,85C 517.423,88.5281 518.423,92.0281 519.5,95.5C 515.903,97.3622 512.069,98.6955 508,99.5C 505.442,95.6383 503.942,91.305 503.5,86.5C 507.479,86.2576 511.146,85.2576 514.5,83.5 Z"/></g>
<g><path style="opacity:1" fill="#f3f9fc" d="M 195.5,87.5 C 196.901,87.9709 198.234,88.6376 199.5,89.5C 195.601,95.6483 197.268,98.8149 204.5,99C 205.38,100.356 205.714,101.856 205.5,103.5C 201.185,103.046 197.019,102.046 193,100.5C 193.289,96.1123 194.122,91.779 195.5,87.5 Z"/></g>
<g><path style="opacity:1" fill="#f3f9fc" d="M 497.5,87.5 C 498.833,87.5 500.167,87.5 501.5,87.5C 501.871,91.6491 502.871,95.6491 504.5,99.5C 500.445,101.221 496.278,102.555 492,103.5C 491.5,102.5 491,101.5 490.5,100.5C 492.611,99.0512 494.944,98.0512 497.5,97.5C 497.833,96.6667 498.167,95.8333 498.5,95C 497.841,92.5379 497.507,90.0379 497.5,87.5 Z"/></g>
<g><path style="opacity:1" fill="#f9fcfd" d="M 201.5,89.5 C 203.5,89.8333 205.5,90.1667 207.5,90.5C 208.321,96.1581 206.154,97.8248 201,95.5C 200.82,93.5116 200.986,91.5116 201.5,89.5 Z"/></g>
<g><path style="opacity:1" fill="#f7fbfd" d="M 491.5,89.5 C 492.833,89.5 494.167,89.5 495.5,89.5C 495.261,91.4672 495.594,93.3005 496.5,95C 494.323,96.2022 491.989,96.7022 489.5,96.5C 489.167,94.5 488.833,92.5 488.5,90.5C 489.791,90.7373 490.791,90.404 491.5,89.5 Z"/></g>
<g><path style="opacity:1" fill="#f7fbfd" d="M 175.5,99.5 C 180.167,100.167 184.833,100.833 189.5,101.5C 188.503,105.492 187.503,109.492 186.5,113.5C 185.311,114.429 183.978,114.762 182.5,114.5C 183.167,111.167 183.833,107.833 184.5,104.5C 181.482,104.296 178.482,103.963 175.5,103.5C 175.5,102.167 175.5,100.833 175.5,99.5 Z"/></g>
<g><path style="opacity:1" fill="#f4f9fc" d="M 514.5,99.5 C 516.5,99.5 518.5,99.5 520.5,99.5C 520.5,100.833 520.5,102.167 520.5,103.5C 517.833,103.833 515.167,104.167 512.5,104.5C 513.167,107.833 513.833,111.167 514.5,114.5C 512.833,114.5 511.167,114.5 509.5,114.5C 508.993,110.14 508.327,105.807 507.5,101.5C 510.152,101.59 512.485,100.924 514.5,99.5 Z"/></g>
<g><path style="opacity:1" fill="#f8fbfd" d="M 191.5,102.5 C 195.919,103.583 200.252,104.916 204.5,106.5C 203.184,110.429 202.184,114.429 201.5,118.5C 197.034,118.124 192.701,117.124 188.5,115.5C 189.394,111.136 190.394,106.803 191.5,102.5 Z"/></g>
<g><path style="opacity:1" fill="#f9fcfd" d="M 503.5,102.5 C 504.693,102.97 505.36,103.97 505.5,105.5C 506.343,108.848 506.843,112.181 507,115.5C 502.981,117.046 498.815,118.046 494.5,118.5C 493.821,114.143 493.321,109.81 493,105.5C 496.662,104.76 500.162,103.76 503.5,102.5 Z"/></g>
<g><path style="opacity:1" fill="#eef7fb" d="M 518.5,105.5 C 519.833,105.5 521.167,105.5 522.5,105.5C 522.993,107.806 523.326,110.139 523.5,112.5C 521.085,112.627 518.751,112.793 516.5,113C 515.577,110.959 515.244,108.792 515.5,106.5C 516.791,106.737 517.791,106.404 518.5,105.5 Z"/></g>
<g><path style="opacity:1" fill="#f2f9fc" d="M 174.5,105.5 C 176.806,105.993 179.139,106.326 181.5,106.5C 181.007,108.806 180.674,111.139 180.5,113.5C 174.199,114.087 172.199,111.421 174.5,105.5 Z"/></g>
<g><path style="opacity:1" fill="#f28721" d="M 385.5,215.5 C 384.833,215.5 384.5,215.167 384.5,214.5C 361.339,213.502 338.006,213.169 314.5,213.5C 313.662,213.842 313.328,214.508 313.5,215.5C 312.502,184.004 312.168,152.338 312.5,120.5C 337.167,120.5 361.833,120.5 386.5,120.5C 386.832,152.338 386.498,184.004 385.5,215.5 Z"/></g>
<g><path style="opacity:1" fill="#faca0a" d="M 384.5,122.5 C 361.167,122.5 337.833,122.5 314.5,122.5C 314.5,124.167 314.5,125.833 314.5,127.5C 313.539,125.735 313.205,123.735 313.5,121.5C 337.339,121.169 361.006,121.502 384.5,122.5 Z"/></g>
<g><path style="opacity:1" fill="#fef100" d="M 384.5,122.5 C 384.5,124.167 384.5,125.833 384.5,127.5C 361.167,127.5 337.833,127.5 314.5,127.5C 314.5,125.833 314.5,124.167 314.5,122.5C 337.833,122.5 361.167,122.5 384.5,122.5 Z"/></g>
<g><path style="opacity:1" fill="#feed01" d="M 320.5,131.5 C 319.521,133.145 318.188,134.479 316.5,135.5C 317.852,136.524 319.185,137.524 320.5,138.5C 318.735,139.461 316.735,139.795 314.5,139.5C 314.5,136.833 314.5,134.167 314.5,131.5C 316.5,131.5 318.5,131.5 320.5,131.5 Z"/></g>
<g><path style="opacity:1" fill="#feed01" d="M 322.5,131.5 C 326.702,131.183 330.702,131.517 334.5,132.5C 329.167,134.5 329.167,136.5 334.5,138.5C 330.5,139.833 326.5,139.833 322.5,138.5C 323.815,137.524 325.148,136.524 326.5,135.5C 324.812,134.479 323.479,133.145 322.5,131.5 Z"/></g>
<g><path style="opacity:1" fill="#feed01" d="M 336.5,132.5 C 340.5,131.167 344.5,131.167 348.5,132.5C 343.167,134.5 343.167,136.5 348.5,138.5C 344.5,139.833 340.5,139.833 336.5,138.5C 341.833,136.5 341.833,134.5 336.5,132.5 Z"/></g>
<g><path style="opacity:1" fill="#feec01" d="M 350.5,132.5 C 354.5,131.167 358.5,131.167 362.5,132.5C 357.201,134.444 357.201,136.444 362.5,138.5C 358.5,139.833 354.5,139.833 350.5,138.5C 354.5,136.5 354.5,134.5 350.5,132.5 Z"/></g>
<g><path style="opacity:1" fill="#feec01" d="M 364.5,132.5 C 368.5,131.167 372.5,131.167 376.5,132.5C 371.201,134.444 371.201,136.444 376.5,138.5C 372.5,139.833 368.5,139.833 364.5,138.5C 368.5,136.5 368.5,134.5 364.5,132.5 Z"/></g>
<g><path style="opacity:1" fill="#fdec01" d="M 378.5,132.5 C 380.265,131.539 382.265,131.205 384.5,131.5C 384.5,134.167 384.5,136.833 384.5,139.5C 382.265,139.795 380.265,139.461 378.5,138.5C 382.5,136.5 382.5,134.5 378.5,132.5 Z"/></g>
<g><path style="opacity:1" fill="#f58b1d" d="M 320.5,131.5 C 321.167,131.5 321.833,131.5 322.5,131.5C 323.479,133.145 324.812,134.479 326.5,135.5C 325.148,136.524 323.815,137.524 322.5,138.5C 321.833,138.5 321.167,138.5 320.5,138.5C 319.185,137.524 317.852,136.524 316.5,135.5C 318.188,134.479 319.521,133.145 320.5,131.5 Z"/></g>
<g><path style="opacity:1" fill="#f58a1e" d="M 334.5,132.5 C 335.167,132.5 335.833,132.5 336.5,132.5C 341.833,134.5 341.833,136.5 336.5,138.5C 335.833,138.5 335.167,138.5 334.5,138.5C 329.167,136.5 329.167,134.5 334.5,132.5 Z"/></g>
<g><path style="opacity:1" fill="#f5871e" d="M 348.5,132.5 C 349.167,132.5 349.833,132.5 350.5,132.5C 354.5,134.5 354.5,136.5 350.5,138.5C 349.833,138.5 349.167,138.5 348.5,138.5C 343.167,136.5 343.167,134.5 348.5,132.5 Z"/></g>
<g><path style="opacity:1" fill="#f5881e" d="M 362.5,132.5 C 363.167,132.5 363.833,132.5 364.5,132.5C 368.5,134.5 368.5,136.5 364.5,138.5C 363.833,138.5 363.167,138.5 362.5,138.5C 357.201,136.444 357.201,134.444 362.5,132.5 Z"/></g>
<g><path style="opacity:1" fill="#f5881e" d="M 376.5,132.5 C 377.167,132.5 377.833,132.5 378.5,132.5C 382.5,134.5 382.5,136.5 378.5,138.5C 377.833,138.5 377.167,138.5 376.5,138.5C 371.201,136.444 371.201,134.444 376.5,132.5 Z"/></g>
<g><path style="opacity:1" fill="#fac20d" d="M 384.5,131.5 C 382.265,131.205 380.265,131.539 378.5,132.5C 377.833,132.5 377.167,132.5 376.5,132.5C 372.5,131.167 368.5,131.167 364.5,132.5C 363.833,132.5 363.167,132.5 362.5,132.5C 358.5,131.167 354.5,131.167 350.5,132.5C 349.833,132.5 349.167,132.5 348.5,132.5C 344.5,131.167 340.5,131.167 336.5,132.5C 335.833,132.5 335.167,132.5 334.5,132.5C 330.702,131.517 326.702,131.183 322.5,131.5C 321.833,131.5 321.167,131.5 320.5,131.5C 318.5,131.5 316.5,131.5 314.5,131.5C 314.5,134.167 314.5,136.833 314.5,139.5C 316.735,139.795 318.735,139.461 320.5,138.5C 321.167,138.5 321.833,138.5 322.5,138.5C 326.5,139.833 330.5,139.833 334.5,138.5C 335.167,138.5 335.833,138.5 336.5,138.5C 340.5,139.833 344.5,139.833 348.5,138.5C 349.167,138.5 349.833,138.5 350.5,138.5C 354.5,139.833 358.5,139.833 362.5,138.5C 363.167,138.5 363.833,138.5 364.5,138.5C 368.5,139.833 372.5,139.833 376.5,138.5C 377.167,138.5 377.833,138.5 378.5,138.5C 380.265,139.461 382.265,139.795 384.5,139.5C 361.006,140.498 337.339,140.831 313.5,140.5C 313.5,137.167 313.5,133.833 313.5,130.5C 337.339,130.169 361.006,130.502 384.5,131.5 Z"/></g>
<g><path style="opacity:1" fill="#f9b710" d="M 384.5,143.5 C 361.167,143.5 337.833,143.5 314.5,143.5C 314.5,160.833 314.5,178.167 314.5,195.5C 313.503,178.008 313.17,160.341 313.5,142.5C 337.339,142.169 361.006,142.502 384.5,143.5 Z"/></g>
<g><path style="opacity:1" fill="#fef000" d="M 384.5,143.5 C 384.5,160.833 384.5,178.167 384.5,195.5C 383.167,195.5 381.833,195.5 380.5,195.5C 379.857,191.599 380.857,188.266 383.5,185.5C 382.167,183.833 380.833,182.167 379.5,180.5C 375.554,182.815 375.054,185.482 378,188.5C 378.497,190.81 378.663,193.143 378.5,195.5C 376.5,195.5 374.5,195.5 372.5,195.5C 372.15,191.946 372.816,188.612 374.5,185.5C 371.903,179.007 369.57,179.007 367.5,185.5C 369.18,188.571 369.847,191.904 369.5,195.5C 367.5,195.5 365.5,195.5 363.5,195.5C 363.153,191.904 363.82,188.571 365.5,185.5C 363.43,179.007 361.097,179.007 358.5,185.5C 360.301,188.535 360.968,191.869 360.5,195.5C 358.833,195.5 357.167,195.5 355.5,195.5C 355.032,191.869 355.699,188.535 357.5,185.5C 354.903,179.007 352.57,179.007 350.5,185.5C 352.18,188.571 352.847,191.904 352.5,195.5C 350.5,195.5 348.5,195.5 346.5,195.5C 346.153,191.904 346.82,188.571 348.5,185.5C 346.214,178.891 343.881,178.891 341.5,185.5C 343.184,188.612 343.85,191.946 343.5,195.5C 341.5,195.5 339.5,195.5 337.5,195.5C 336.857,191.599 337.857,188.266 340.5,185.5C 337.846,178.972 335.512,178.972 333.5,185.5C 335.18,188.571 335.847,191.904 335.5,195.5C 333.5,195.5 331.5,195.5 329.5,195.5C 329.15,191.946 329.816,188.612 331.5,185.5C 329.385,179.172 327.052,179.005 324.5,185C 326.139,188.302 326.806,191.802 326.5,195.5C 324.5,195.5 322.5,195.5 320.5,195.5C 320.153,191.904 320.82,188.571 322.5,185.5C 320.43,179.007 318.097,179.007 315.5,185.5C 318.143,188.266 319.143,191.599 318.5,195.5C 317.167,195.5 315.833,195.5 314.5,195.5C 314.5,178.167 314.5,160.833 314.5,143.5C 337.833,143.5 361.167,143.5 384.5,143.5 Z"/></g>
<g><path style="opacity:1" fill="#fbce09" d="M 384.5,198.5 C 361.167,198.5 337.833,198.5 314.5,198.5C 314.5,202.833 314.5,207.167 314.5,211.5C 313.514,207.03 313.181,202.363 313.5,197.5C 337.339,197.169 361.006,197.502 384.5,198.5 Z"/></g>
<g><path style="opacity:1" fill="#fef100" d="M 384.5,198.5 C 384.5,202.833 384.5,207.167 384.5,211.5C 361.167,211.5 337.833,211.5 314.5,211.5C 314.5,207.167 314.5,202.833 314.5,198.5C 337.833,198.5 361.167,198.5 384.5,198.5 Z"/></g>
<g><path style="opacity:1" fill="#fac70b" d="M 314.5,213.5 C 338.006,213.169 361.339,213.502 384.5,214.5C 383.833,214.833 383.167,215.167 382.5,215.5C 360.167,214.167 337.833,214.167 315.5,215.5C 314.662,215.158 314.328,214.492 314.5,213.5 Z"/></g>
<g><path style="opacity:1" fill="#f08c22" d="M 314.5,213.5 C 314.328,214.492 314.662,215.158 315.5,215.5C 324.148,221.636 328.148,230.136 327.5,241C 328.438,252.714 324.438,262.214 315.5,269.5C 314.957,269.56 314.624,269.893 314.5,270.5C 337.833,271.833 361.167,271.833 384.5,270.5C 384.376,269.893 384.043,269.56 383.5,269.5C 378.954,267.107 375.788,263.441 374,258.5C 369.07,246.667 369.404,235 375,223.5C 377,220.334 379.5,217.668 382.5,215.5C 383.167,215.167 383.833,214.833 384.5,214.5C 384.5,215.167 384.833,215.5 385.5,215.5C 376.53,221.832 372.197,230.665 372.5,242C 372.085,253.67 376.585,262.836 386,269.5C 386.5,297.498 386.667,325.498 386.5,353.5C 385.5,353.167 384.833,352.5 384.5,351.5C 384.5,330.5 384.5,309.5 384.5,288.5C 383.167,288.5 381.833,288.5 380.5,288.5C 379.971,292.192 380.971,295.358 383.5,298C 380.833,304 378.167,304 375.5,298C 377.227,295.096 377.893,291.93 377.5,288.5C 375.833,288.5 374.167,288.5 372.5,288.5C 372.108,291.948 372.775,295.114 374.5,298C 373.349,299.823 372.182,301.656 371,303.5C 369.203,302.073 368.036,300.24 367.5,298C 369.078,295.032 369.745,291.865 369.5,288.5C 367.5,288.5 365.5,288.5 363.5,288.5C 363.255,291.865 363.922,295.032 365.5,298C 364.964,300.24 363.797,302.073 362,303.5C 360.818,301.656 359.651,299.823 358.5,298C 360.225,295.114 360.892,291.948 360.5,288.5C 358.833,288.5 357.167,288.5 355.5,288.5C 355.15,292.054 355.816,295.388 357.5,298.5C 356.167,300.167 354.833,301.833 353.5,303.5C 352.396,301.611 351.063,299.945 349.5,298.5C 348.01,300.126 346.51,301.792 345,303.5C 343.702,301.735 342.536,299.901 341.5,298C 343.225,295.114 343.892,291.948 343.5,288.5C 341.833,288.5 340.167,288.5 338.5,288.5C 338.107,291.93 338.773,295.096 340.5,298C 339.695,299.113 339.028,300.279 338.5,301.5C 336.5,300.167 334.833,298.5 333.5,296.5C 335.268,293.838 335.935,290.838 335.5,287.5C 333.5,287.5 331.5,287.5 329.5,287.5C 329.5,289.5 329.5,291.5 329.5,293.5C 328.391,293.443 327.391,293.11 326.5,292.5C 326.5,290.833 326.5,289.167 326.5,287.5C 324.5,287.5 322.5,287.5 320.5,287.5C 320.5,288.833 320.5,290.167 320.5,291.5C 319.833,291.5 319.167,291.5 318.5,291.5C 317.952,289.468 316.619,288.468 314.5,288.5C 314.5,289.5 314.5,290.5 314.5,291.5C 313.833,291.5 313.167,291.5 312.5,291.5C 312.169,283.804 312.503,276.138 313.5,268.5C 317.141,266.693 319.974,264.026 322,260.5C 324.727,254.642 326.227,248.476 326.5,242C 326.431,230.901 322.098,222.068 313.5,215.5C 313.328,214.508 313.662,213.842 314.5,213.5 Z"/></g>
<g><path style="opacity:1" fill="#fef100" d="M 315.5,215.5 C 337.833,214.167 360.167,214.167 382.5,215.5C 379.5,217.668 377,220.334 375,223.5C 369.404,235 369.07,246.667 374,258.5C 375.788,263.441 378.954,267.107 383.5,269.5C 360.833,270.833 338.167,270.833 315.5,269.5C 324.438,262.214 328.438,252.714 327.5,241C 328.148,230.136 324.148,221.636 315.5,215.5 Z"/></g>
<g><path style="opacity:1" fill="#fac40c" d="M 315.5,269.5 C 338.167,270.833 360.833,270.833 383.5,269.5C 384.043,269.56 384.376,269.893 384.5,270.5C 361.167,271.833 337.833,271.833 314.5,270.5C 314.624,269.893 314.957,269.56 315.5,269.5 Z"/></g>
<g><path style="opacity:1" fill="#fef100" d="M 314.5,273.5 C 337.833,273.5 361.167,273.5 384.5,273.5C 384.5,277.5 384.5,281.5 384.5,285.5C 361.167,285.5 337.833,285.5 314.5,285.5C 314.5,281.5 314.5,277.5 314.5,273.5 Z"/></g>
<g><path style="opacity:1" fill="#fdfdfd" d="M 651.5,381.5 C 639.128,360.653 620.794,352.153 596.5,356C 564.96,366.253 553.127,387.42 561,419.5C 569.924,435.158 583.424,441.658 601.5,439C 623.374,434.8 633.541,421.633 632,399.5C 628.159,385.65 618.992,378.65 604.5,378.5C 588.267,380.305 581.1,389.305 583,405.5C 586.605,416.221 593.439,419.055 603.5,414C 607.3,410.903 608.3,407.069 606.5,402.5C 606.278,412.555 601.278,416.388 591.5,414C 586.257,410.848 583.924,406.181 584.5,400C 585.759,387.743 592.592,381.243 605,380.5C 617.558,380.736 625.892,386.736 630,398.5C 632.661,417.695 624.827,430.195 606.5,436C 586.71,441.302 571.876,435.136 562,417.5C 555.586,387.833 566.752,368 595.5,358C 619.607,353.729 637.941,361.895 650.5,382.5C 651.32,384.812 652.153,387.146 653,389.5C 654.455,413.648 650.788,436.981 642,459.5C 599.745,556.42 527.412,618.086 425,644.5C 421.677,641.828 419.011,638.494 417,634.5C 407.696,624.261 396.196,619.095 382.5,619C 376.876,622.91 376.042,627.744 380,633.5C 387.706,639.539 394.373,646.539 400,654.5C 403.765,669.396 398.932,680.396 385.5,687.5C 387.349,682.333 387.849,677 387,671.5C 385.333,668.5 383,666.167 380,664.5C 380.939,681.223 373.105,690.057 356.5,691C 360.605,682.997 360.438,675.163 356,667.5C 353.699,684.739 343.866,692.572 326.5,691C 335.349,685.816 337.183,678.983 332,670.5C 327.639,674.597 322.472,676.93 316.5,677.5C 303.053,677.722 296.053,671.055 295.5,657.5C 295.455,653.694 296.122,650.027 297.5,646.5C 299.27,652.226 302.603,656.726 307.5,660C 310.924,660.747 314.257,660.58 317.5,659.5C 323.253,656.227 326.419,651.227 327,644.5C 328.545,632.587 324.045,623.92 313.5,618.5C 300.546,612.249 288.213,613.416 276.5,622C 270.924,626.155 266.257,631.155 262.5,637C 251.599,635.608 240.932,632.941 230.5,629C 179.714,607.563 136.881,575.397 102,532.5C 76.283,501.75 57.283,467.083 45,428.5C 40.9035,416.515 39.0702,404.181 39.5,391.5C 51.6033,361.784 73.27,351.284 104.5,360C 128.707,370.914 138.207,389.414 133,415.5C 128.446,427.213 119.946,434.38 107.5,437C 89.6431,440.281 75.8098,434.448 66,419.5C 62.0694,409.125 62.7361,399.125 68,389.5C 79.5082,378.68 91.8415,377.68 105,386.5C 110.684,393.596 111.684,401.263 108,409.5C 102.553,415.29 96.5527,415.957 90,411.5C 89.0296,408.556 88.1962,405.556 87.5,402.5C 86.2679,412.766 90.9346,417.266 101.5,416C 107.076,414.681 110.243,411.181 111,405.5C 113.251,391.836 107.751,383.002 94.5,379C 78.3944,376.781 67.561,383.281 62,398.5C 59.9153,421.097 70.0819,434.597 92.5,439C 124.062,440.105 138.562,424.938 136,393.5C 129.113,370.951 113.947,358.118 90.5,355C 64.6227,354.385 47.2893,366.219 38.5,390.5C 37.5909,389.682 37.0909,388.016 37,385.5C 35.1055,368.036 36.9389,351.036 42.5,334.5C 51.6554,342.911 62.3221,348.411 74.5,351C 91.5024,351.119 108.502,351.119 125.5,351C 130.631,351.465 135.631,352.465 140.5,354C 154.008,377.308 171.674,396.974 193.5,413C 211.116,425.615 228.45,438.615 245.5,452C 252.333,458.176 257.833,465.342 262,473.5C 263.224,479.304 262.224,484.638 259,489.5C 245.179,502.197 243.845,516.197 255,531.5C 267.731,543.978 282.898,548.311 300.5,544.5C 297.081,529.542 297.914,514.875 303,500.5C 305.994,494.689 309.161,489.022 312.5,483.5C 320.235,474.26 328.568,465.427 337.5,457C 350.929,446.241 363.763,434.741 376,422.5C 387.762,407.893 389.762,391.893 382,374.5C 374.67,359.34 364.17,346.84 350.5,337C 338.467,329.317 326.133,322.15 313.5,315.5C 310.829,313.066 307.996,310.733 305,308.5C 305.501,302.001 309.001,299.168 315.5,300C 317.055,301.289 318.721,301.956 320.5,302C 321.667,299.167 320.833,298.333 318,299.5C 316.39,297.269 314.557,295.269 312.5,293.5C 316.107,292.511 319.774,292.177 323.5,292.5C 328.38,295.199 332.88,298.532 337,302.5C 342.953,310.788 349.286,318.788 356,326.5C 366.365,335.699 376.199,345.366 385.5,355.5C 406.438,385.104 405.438,413.77 382.5,441.5C 369.913,452.338 361.08,465.671 356,481.5C 353.562,509.456 364.062,530.956 387.5,546C 390.817,546.498 394.15,546.665 397.5,546.5C 414.5,540.67 421,529.003 417,511.5C 414.667,504.5 412.333,497.5 410,490.5C 406.095,478.662 409.928,470.828 421.5,467C 443.552,459.983 465.218,451.983 486.5,443C 503.33,434.834 517.83,423.667 530,409.5C 536.395,400.375 540.895,390.375 543.5,379.5C 589.814,355.001 597.647,321.335 567,278.5C 566.312,277.668 566.479,277.002 567.5,276.5C 599.31,289.479 623.81,310.813 641,340.5C 646.264,350.958 649.931,361.958 652,373.5C 652.804,376.958 652.637,379.625 651.5,381.5 Z"/></g>
<g><path style="opacity:1" fill="#fae404" d="M 333.5,296.5 C 331.77,295.974 330.436,294.974 329.5,293.5C 329.5,291.5 329.5,289.5 329.5,287.5C 331.5,287.5 333.5,287.5 335.5,287.5C 335.935,290.838 335.268,293.838 333.5,296.5 Z"/></g>
<g><path style="opacity:1" fill="#fdef00" d="M 384.5,351.5 C 373.255,340.757 362.089,329.757 351,318.5C 346.616,312.956 342.449,307.289 338.5,301.5C 339.028,300.279 339.695,299.113 340.5,298C 338.773,295.096 338.107,291.93 338.5,288.5C 340.167,288.5 341.833,288.5 343.5,288.5C 343.892,291.948 343.225,295.114 341.5,298C 342.536,299.901 343.702,301.735 345,303.5C 346.51,301.792 348.01,300.126 349.5,298.5C 351.063,299.945 352.396,301.611 353.5,303.5C 354.833,301.833 356.167,300.167 357.5,298.5C 355.816,295.388 355.15,292.054 355.5,288.5C 357.167,288.5 358.833,288.5 360.5,288.5C 360.892,291.948 360.225,295.114 358.5,298C 359.651,299.823 360.818,301.656 362,303.5C 363.797,302.073 364.964,300.24 365.5,298C 363.922,295.032 363.255,291.865 363.5,288.5C 365.5,288.5 367.5,288.5 369.5,288.5C 369.745,291.865 369.078,295.032 367.5,298C 368.036,300.24 369.203,302.073 371,303.5C 372.182,301.656 373.349,299.823 374.5,298C 372.775,295.114 372.108,291.948 372.5,288.5C 374.167,288.5 375.833,288.5 377.5,288.5C 377.893,291.93 377.227,295.096 375.5,298C 378.167,304 380.833,304 383.5,298C 380.971,295.358 379.971,292.192 380.5,288.5C 381.833,288.5 383.167,288.5 384.5,288.5C 384.5,309.5 384.5,330.5 384.5,351.5 Z"/></g>
<g><path style="opacity:1" fill="#feeb01" d="M 346.5,288.5 C 348.5,288.5 350.5,288.5 352.5,288.5C 353.076,292.122 352.076,295.122 349.5,297.5C 348.522,297.023 347.689,296.357 347,295.5C 346.503,293.19 346.337,290.857 346.5,288.5 Z"/></g>
<g><path style="opacity:1" fill="#c9bb0c" d="M 318.5,291.5 C 317.167,291.5 315.833,291.5 314.5,291.5C 314.5,290.5 314.5,289.5 314.5,288.5C 316.619,288.468 317.952,289.468 318.5,291.5 Z"/></g>
<g><path style="opacity:1" fill="#ebcd0a" d="M 326.5,292.5 C 325.5,292.5 324.5,292.5 323.5,292.5C 322.791,291.596 321.791,291.263 320.5,291.5C 320.5,290.167 320.5,288.833 320.5,287.5C 322.5,287.5 324.5,287.5 326.5,287.5C 326.5,289.167 326.5,290.833 326.5,292.5 Z"/></g>
<g><path style="opacity:1" fill="#33363b" d="M 312.5,291.5 C 313.167,291.5 313.833,291.5 314.5,291.5C 315.833,291.5 317.167,291.5 318.5,291.5C 319.167,291.5 319.833,291.5 320.5,291.5C 321.791,291.263 322.791,291.596 323.5,292.5C 319.774,292.177 316.107,292.511 312.5,293.5C 314.557,295.269 316.39,297.269 318,299.5C 320.833,298.333 321.667,299.167 320.5,302C 318.721,301.956 317.055,301.289 315.5,300C 309.001,299.168 305.501,302.001 305,308.5C 307.996,310.733 310.829,313.066 313.5,315.5C 313.167,315.5 312.833,315.5 312.5,315.5C 288.771,297.282 265.437,278.449 242.5,259C 264.515,268.84 286.182,279.507 307.5,291C 309.134,291.494 310.801,291.66 312.5,291.5 Z"/></g>
<g><path style="opacity:1" fill="#f6f6f6" d="M 253.5,266.5 C 272.395,274.941 291.395,284.107 310.5,294C 311.5,295 312.5,296 313.5,297C 308.832,298.497 305.166,301.33 302.5,305.5C 286.319,292.251 269.985,279.251 253.5,266.5 Z"/></g>
<g><path style="opacity:1" fill="#484131" d="M 323.5,292.5 C 324.5,292.5 325.5,292.5 326.5,292.5C 327.391,293.11 328.391,293.443 329.5,293.5C 330.436,294.974 331.77,295.974 333.5,296.5C 334.833,298.5 336.5,300.167 338.5,301.5C 342.449,307.289 346.616,312.956 351,318.5C 362.089,329.757 373.255,340.757 384.5,351.5C 384.833,352.5 385.5,353.167 386.5,353.5C 386.5,353.833 386.5,354.167 386.5,354.5C 385.833,354.5 385.5,354.833 385.5,355.5C 376.199,345.366 366.365,335.699 356,326.5C 349.286,318.788 342.953,310.788 337,302.5C 332.88,298.532 328.38,295.199 323.5,292.5 Z"/></g>
<g><path style="opacity:1" fill="#f7a118" d="M 312.5,316.5 C 313.71,316.932 314.71,317.599 315.5,318.5C 314.501,371.664 314.168,424.997 314.5,478.5C 314.068,479.71 313.401,480.71 312.5,481.5C 312.5,426.5 312.5,371.5 312.5,316.5 Z"/></g>
<g><path style="opacity:1" fill="#fdf000" d="M 315.5,318.5 C 336.406,327.7 354.573,340.7 370,357.5C 382.153,371.632 386.819,387.965 384,406.5C 381.121,412.705 377.454,418.372 373,423.5C 361.761,434.743 349.928,445.243 337.5,455C 329.604,462.728 321.937,470.562 314.5,478.5C 314.168,424.997 314.501,371.664 315.5,318.5 Z"/></g>
<g><path style="opacity:1" fill="#32363c" d="M 386.5,620.5 C 385.833,620.5 385.167,620.5 384.5,620.5C 381.514,621.486 379.514,623.486 378.5,626.5C 379.74,630.061 381.74,633.061 384.5,635.5C 384.842,636.338 385.508,636.672 386.5,636.5C 390.463,640.964 394.63,645.298 399,649.5C 406.379,666.527 402.212,679.861 386.5,689.5C 386.167,688.833 385.833,688.167 385.5,687.5C 398.932,680.396 403.765,669.396 400,654.5C 394.373,646.539 387.706,639.539 380,633.5C 376.042,627.744 376.876,622.91 382.5,619C 396.196,619.095 407.696,624.261 417,634.5C 419.011,638.494 421.677,641.828 425,644.5C 527.412,618.086 599.745,556.42 642,459.5C 650.788,436.981 654.455,413.648 653,389.5C 652.153,387.146 651.32,384.812 650.5,382.5C 650.5,381.833 650.833,381.5 651.5,381.5C 652.637,379.625 652.804,376.958 652,373.5C 649.931,361.958 646.264,350.958 641,340.5C 623.81,310.813 599.31,289.479 567.5,276.5C 566.479,277.002 566.312,277.668 567,278.5C 597.647,321.335 589.814,355.001 543.5,379.5C 540.895,390.375 536.395,400.375 530,409.5C 517.83,423.667 503.33,434.834 486.5,443C 465.218,451.983 443.552,459.983 421.5,467C 409.928,470.828 406.095,478.662 410,490.5C 412.333,497.5 414.667,504.5 417,511.5C 421,529.003 414.5,540.67 397.5,546.5C 394.833,545.833 392.167,545.167 389.5,544.5C 392.85,544.665 396.183,544.498 399.5,544C 413.542,538.414 419.042,528.247 416,513.5C 412.929,504.954 410.262,496.288 408,487.5C 405.669,476.993 409.503,469.826 419.5,466C 437.575,459.864 455.575,453.531 473.5,447C 483.112,442.861 492.446,438.194 501.5,433C 520.881,421.288 533.881,404.622 540.5,383C 531.972,381.529 525.805,385.029 522,393.5C 517.19,379.62 519.024,366.786 527.5,355C 525.433,354.464 523.599,354.964 522,356.5C 520.08,359.339 518.413,362.339 517,365.5C 513.057,353.955 515.557,344.122 524.5,336C 520.435,337.232 517.102,339.732 514.5,343.5C 512.778,331.83 516.778,322.663 526.5,316C 513.134,311.742 500.3,312.908 488,319.5C 486.274,319.054 484.774,318.221 483.5,317C 481.527,316.505 479.527,316.338 477.5,316.5C 476.237,311.711 474.57,307.045 472.5,302.5C 473.208,299.542 474.208,296.709 475.5,294C 486.214,289.763 496.547,284.763 506.5,279C 511.116,276.718 514.783,273.384 517.5,269C 522.681,267.718 527.681,266.051 532.5,264C 528.167,263.333 523.833,263.333 519.5,264C 509.255,267.526 498.922,270.859 488.5,274C 479.606,276.258 472.106,274.092 466,267.5C 462.471,262.226 460.137,256.559 459,250.5C 461.945,254.232 465.445,257.399 469.5,260C 471.902,260.814 474.235,260.647 476.5,259.5C 473.494,252.563 473.994,245.896 478,239.5C 478.301,247.643 482.135,253.143 489.5,256C 501.2,256.4 512.867,255.9 524.5,254.5C 528.705,254.547 532.871,254.88 537,255.5C 541.434,251.066 545.934,246.566 550.5,242C 559.508,236.161 568.841,230.828 578.5,226C 580.759,224.285 582.926,222.452 585,220.5C 589.486,212.312 589.653,203.978 585.5,195.5C 586.333,195.167 587.167,194.833 588,194.5C 595.841,196.347 600.174,201.347 601,209.5C 603.267,210.935 605.267,210.602 607,208.5C 608.667,206.167 610.333,203.833 612,201.5C 615.927,191.499 613.427,183.666 604.5,178C 595.771,175.476 587.438,176.31 579.5,180.5C 582.462,169.758 589.795,164.258 601.5,164C 595.3,155.486 586.967,152.486 576.5,155C 574.598,156.301 572.598,156.968 570.5,157C 573.061,153.527 576.061,150.527 579.5,148C 601.391,140.853 617.557,147.686 628,168.5C 633.437,186.402 629.937,202.236 617.5,216C 600.82,227.011 583.487,237.011 565.5,246C 559.357,249.643 554.357,254.476 550.5,260.5C 551.167,260.833 551.833,261.167 552.5,261.5C 558.928,258.912 565.261,256.079 571.5,253C 575.152,252.501 578.818,252.335 582.5,252.5C 582.307,263.868 576.64,270.868 565.5,273.5C 577.281,278.89 588.615,285.057 599.5,292C 627.388,311.265 645.222,337.432 653,370.5C 658.43,407.121 653.096,442.121 637,475.5C 592.058,565.434 520.725,622.434 423,646.5C 420.844,644.199 419.178,641.533 418,638.5C 409.858,628.184 399.358,622.184 386.5,620.5 Z"/></g>
<g><path style="opacity:1" fill="#fbfbfb" d="M 566.5,281.5 C 595.416,322.27 587.75,354.436 543.5,378C 538.651,380.129 533.651,381.795 528.5,383C 526.291,384.873 524.458,387.04 523,389.5C 518.712,375.565 521.545,363.399 531.5,353C 525.518,351.961 521.018,354.127 518,359.5C 516.352,345.64 522.185,336.473 535.5,332C 527.791,331.268 521.291,333.768 516,339.5C 515.443,329.781 519.277,322.281 527.5,317C 544.894,321.053 557.061,314.886 564,298.5C 565.89,292.985 566.724,287.319 566.5,281.5 Z"/></g>
<g><path style="opacity:1" fill="#fafafa" d="M 587.5,145.5 C 606.264,145.125 619.431,153.459 627,170.5C 631.443,186.8 628.276,201.3 617.5,214C 601.488,224.677 584.822,234.343 567.5,243C 559.025,247.641 552.358,254.141 547.5,262.5C 548.667,262.833 549.833,263.167 551,263.5C 557.762,261.371 564.262,258.538 570.5,255C 573.817,254.502 577.15,254.335 580.5,254.5C 580.334,260.662 577.667,265.495 572.5,269C 568.484,270.502 564.484,272.002 560.5,273.5C 567.178,288.036 564.511,300.87 552.5,312C 548.093,314.914 543.26,316.414 538,316.5C 528.591,313.567 518.924,311.901 509,311.5C 506.5,311.667 504,311.833 501.5,312C 497.162,313.836 492.828,315.67 488.5,317.5C 487.263,317.444 486.263,316.944 485.5,316C 487.833,314.5 490.167,313 492.5,311.5C 493.583,310.635 493.749,309.635 493,308.5C 482.646,318.138 476.48,315.971 474.5,302C 474.73,299.3 475.73,296.967 477.5,295C 489.605,289.781 501.272,283.781 512.5,277C 514.5,275 516.5,273 518.5,271C 524.467,268.733 530.467,266.567 536.5,264.5C 531.863,261.701 526.863,260.867 521.5,262C 508.347,266.552 495.013,270.386 481.5,273.5C 471.198,272.512 465.198,267.179 463.5,257.5C 467.35,261.594 472.017,263.094 477.5,262C 477.957,261.586 478.291,261.086 478.5,260.5C 475.408,255.705 474.908,250.705 477,245.5C 479.238,252.07 483.738,256.237 490.5,258C 495.5,258.667 500.5,258.667 505.5,258C 516.513,255.185 527.513,255.019 538.5,257.5C 541.943,252.554 545.943,248.054 550.5,244C 559.508,238.161 568.841,232.828 578.5,228C 589.917,220.191 593.25,209.691 588.5,196.5C 591.617,196.642 594.117,197.976 596,200.5C 597.725,203.674 599.058,207.007 600,210.5C 601.938,212.978 604.105,213.145 606.5,211C 615.059,203.266 617.226,194.099 613,183.5C 608.21,177.272 601.876,174.272 594,174.5C 590.068,174.826 586.234,175.326 582.5,176C 587.803,167.081 595.469,163.914 605.5,166.5C 598.786,155.474 589.119,150.974 576.5,153C 579.574,149.476 583.241,146.976 587.5,145.5 Z"/></g>
<g><path style="opacity:1" fill="#353132" d="M 479.5,297.5 C 480.919,299.83 480.419,301.83 478,303.5C 477.5,303.167 477,302.833 476.5,302.5C 477.763,300.971 478.763,299.305 479.5,297.5 Z"/></g>
<g><path style="opacity:1" fill="#393637" d="M 522.5,275.5 C 524.924,275.192 527.257,275.526 529.5,276.5C 528.687,277.814 527.687,278.981 526.5,280C 514.274,284.782 512.94,283.282 522.5,275.5 Z"/></g>
<g><path style="opacity:1" fill="#5b5859" d="M 559.5,264.5 C 558.71,265.794 557.71,266.961 556.5,268C 558.007,268.837 558.507,270.004 558,271.5C 554.462,268.282 554.962,265.948 559.5,264.5 Z"/></g>
<g><path style="opacity:1" fill="#5b5859" d="M 559.5,264.5 C 563.259,261.626 567.593,259.792 572.5,259C 579.705,254.415 580.039,254.749 573.5,260C 568.712,261.207 564.045,262.707 559.5,264.5 Z"/></g>
<g><path style="opacity:1" fill="#32383f" d="M 386.5,354.5 C 407.694,382.604 407.694,410.604 386.5,438.5C 385.5,438.833 384.833,439.5 384.5,440.5C 383.833,440.5 383.5,440.833 383.5,441.5C 383.167,441.5 382.833,441.5 382.5,441.5C 405.438,413.77 406.438,385.104 385.5,355.5C 385.5,354.833 385.833,354.5 386.5,354.5 Z"/></g>
<g><path style="opacity:1" fill="#423f40" d="M 651.5,381.5 C 650.833,381.5 650.5,381.833 650.5,382.5C 637.941,361.895 619.607,353.729 595.5,358C 566.752,368 555.586,387.833 562,417.5C 571.876,435.136 586.71,441.302 606.5,436C 624.827,430.195 632.661,417.695 630,398.5C 625.892,386.736 617.558,380.736 605,380.5C 592.592,381.243 585.759,387.743 584.5,400C 583.924,406.181 586.257,410.848 591.5,414C 601.278,416.388 606.278,412.555 606.5,402.5C 608.3,407.069 607.3,410.903 603.5,414C 593.439,419.055 586.605,416.221 583,405.5C 581.1,389.305 588.267,380.305 604.5,378.5C 618.992,378.65 628.159,385.65 632,399.5C 633.541,421.633 623.374,434.8 601.5,439C 583.424,441.658 569.924,435.158 561,419.5C 553.127,387.42 564.96,366.253 596.5,356C 620.794,352.153 639.128,360.653 651.5,381.5 Z"/></g>
<g><path style="opacity:1" fill="#34383e" d="M 312.5,482.5 C 312.5,482.833 312.5,483.167 312.5,483.5C 309.161,489.022 305.994,494.689 303,500.5C 297.914,514.875 297.081,529.542 300.5,544.5C 282.898,548.311 267.731,543.978 255,531.5C 243.845,516.197 245.179,502.197 259,489.5C 262.224,484.638 263.224,479.304 262,473.5C 257.833,465.342 252.333,458.176 245.5,452C 228.45,438.615 211.116,425.615 193.5,413C 171.674,396.974 154.008,377.308 140.5,354C 135.631,352.465 130.631,351.465 125.5,351C 108.502,351.119 91.5024,351.119 74.5,351C 62.3221,348.411 51.6554,342.911 42.5,334.5C 36.9389,351.036 35.1055,368.036 37,385.5C 37.0909,388.016 37.5909,389.682 38.5,390.5C 39.1667,390.5 39.5,390.833 39.5,391.5C 39.0702,404.181 40.9035,416.515 45,428.5C 57.283,467.083 76.283,501.75 102,532.5C 136.881,575.397 179.714,607.563 230.5,629C 240.932,632.941 251.599,635.608 262.5,637C 266.257,631.155 270.924,626.155 276.5,622C 288.213,613.416 300.546,612.249 313.5,618.5C 313.167,618.5 312.833,618.5 312.5,618.5C 304.679,615.285 296.679,614.785 288.5,617C 278.361,621.803 270.027,628.803 263.5,638C 262.167,638.167 260.833,638.333 259.5,638.5C 244.635,635.712 230.301,631.212 216.5,625C 173.282,604.133 136.116,575.3 105,538.5C 74.3892,502.813 52.7225,462.146 40,416.5C 32.5751,388.267 32.7418,360.101 40.5,332C 38.3378,325.513 36.1711,319.013 34,312.5C 26.843,276.979 39.6763,251.812 72.5,237C 89.9623,230.458 107.962,228.124 126.5,230C 133.03,225.304 139.697,220.804 146.5,216.5C 148.527,223.371 147.194,229.538 142.5,235C 144.833,235.333 147.167,235.667 149.5,236C 157.412,236.755 162.078,240.922 163.5,248.5C 161.801,248.34 160.134,248.506 158.5,249C 171.5,258.5 184.5,268 197.5,277.5C 198.676,280.381 199.343,283.381 199.5,286.5C 198.467,291.068 196.467,295.235 193.5,299C 190.118,299.253 186.951,300.086 184,301.5C 174.692,298.064 165.192,295.231 155.5,293C 150.167,292.333 144.833,292.333 139.5,293C 145.949,295.391 152.282,298.058 158.5,301C 182.079,314.671 189.579,334.504 181,360.5C 179.937,354.978 178.27,349.644 176,344.5C 169.978,332.906 160.478,327.739 147.5,329C 150.661,330.413 153.661,332.08 156.5,334C 171.29,347.974 172.29,362.808 159.5,378.5C 166.652,386.152 173.985,393.652 181.5,401C 199.962,416.062 218.962,430.396 238.5,444C 249.576,452.071 258.076,462.237 264,474.5C 264.667,477.5 264.667,480.5 264,483.5C 261.106,489.062 257.439,494.062 253,498.5C 246.445,515.58 250.945,529.08 266.5,539C 276.77,543.026 287.437,544.526 298.5,543.5C 292.992,520.69 297.658,500.356 312.5,482.5 Z"/></g>
<g><path style="opacity:1" fill="#444142" d="M 39.5,391.5 C 39.5,390.833 39.1667,390.5 38.5,390.5C 47.2893,366.219 64.6227,354.385 90.5,355C 113.947,358.118 129.113,370.951 136,393.5C 138.562,424.938 124.062,440.105 92.5,439C 70.0819,434.597 59.9153,421.097 62,398.5C 67.561,383.281 78.3944,376.781 94.5,379C 107.751,383.002 113.251,391.836 111,405.5C 110.243,411.181 107.076,414.681 101.5,416C 90.9346,417.266 86.2679,412.766 87.5,402.5C 88.1962,405.556 89.0296,408.556 90,411.5C 96.5527,415.957 102.553,415.29 108,409.5C 111.684,401.263 110.684,393.596 105,386.5C 91.8415,377.68 79.5082,378.68 68,389.5C 62.7361,399.125 62.0694,409.125 66,419.5C 75.8098,434.448 89.6431,440.281 107.5,437C 119.946,434.38 128.446,427.213 133,415.5C 138.207,389.414 128.707,370.914 104.5,360C 73.27,351.284 51.6033,361.784 39.5,391.5 Z"/></g>
<g><path style="opacity:1" fill="#038ccd" d="M 143.5,354.5 C 155.739,357.049 160.739,364.383 158.5,376.5C 152.009,370.186 147.009,362.853 143.5,354.5 Z"/></g>
<g><path style="opacity:1" fill="#f4f4f4" d="M 140.5,237.5 C 148.737,235.967 155.57,238.301 161,244.5C 161.483,245.448 161.649,246.448 161.5,247.5C 157.486,247.666 153.486,247.499 149.5,247C 147.304,242.903 143.971,240.237 139.5,239C 140.056,238.617 140.389,238.117 140.5,237.5 Z"/></g>
<g><path style="opacity:1" fill="#fcfcfc" d="M 97.5,231.5 C 105.86,231.169 114.193,231.502 122.5,232.5C 118.515,236.985 114.349,241.318 110,245.5C 106.606,249.898 103.606,254.565 101,259.5C 99.8736,265.453 101.207,270.786 105,275.5C 109.378,279.935 114.212,283.768 119.5,287C 133.479,291.883 147.146,297.549 160.5,304C 179.03,315.575 185.863,332.075 181,353.5C 174.842,332.344 161.009,323.844 139.5,328C 158.455,332.45 167.288,344.283 166,363.5C 165.393,367.381 163.726,370.714 161,373.5C 161.345,366.691 158.845,361.191 153.5,357C 146.528,353.513 139.195,351.18 131.5,350C 112.167,349.667 92.8333,349.333 73.5,349C 51.558,344.725 38.7247,331.558 35,309.5C 29.9692,271.4 45.8026,246.567 82.5,235C 87.5962,233.64 92.5962,232.474 97.5,231.5 Z"/></g>
<g><path style="opacity:1" fill="#fbfbfb" d="M 143.5,219.5 C 144.725,220.152 145.392,221.319 145.5,223C 144.707,231.128 140.707,237.128 133.5,241C 140.13,240.315 145.13,242.815 148.5,248.5C 151.447,249.321 154.447,249.821 157.5,250C 170.667,259.833 183.833,269.667 197,279.5C 198.761,297.609 192.261,301.609 177.5,291.5C 176.167,292.167 176.167,292.833 177.5,293.5C 180.661,294.913 183.661,296.58 186.5,298.5C 185.5,298.833 184.5,299.167 183.5,299.5C 175.258,296.697 166.924,294.197 158.5,292C 137.119,294.879 119.286,288.379 105,272.5C 101.499,265.994 101.833,259.661 106,253.5C 110.716,247.906 115.549,242.406 120.5,237C 128.235,231.146 135.902,225.313 143.5,219.5 Z"/></g>
<g><path style="opacity:1" fill="#332f30" d="M 192.5,280.5 C 194.834,282.176 195.834,284.509 195.5,287.5C 194.5,287.5 193.5,287.5 192.5,287.5C 192.5,285.167 192.5,282.833 192.5,280.5 Z"/></g>
<g><path style="opacity:1" fill="#262223" d="M 141.5,250.5 C 146.611,249.888 150.611,251.722 153.5,256C 149.5,256.667 145.5,256.667 141.5,256C 140.248,254.172 140.248,252.339 141.5,250.5 Z"/></g>
<g><path style="opacity:1" fill="#453d31" d="M 312.5,316.5 C 312.5,316.167 312.5,315.833 312.5,315.5C 312.833,315.5 313.167,315.5 313.5,315.5C 326.133,322.15 338.467,329.317 350.5,337C 364.17,346.84 374.67,359.34 382,374.5C 389.762,391.893 387.762,407.893 376,422.5C 363.763,434.741 350.929,446.241 337.5,457C 328.568,465.427 320.235,474.26 312.5,483.5C 312.5,483.167 312.5,482.833 312.5,482.5C 312.5,482.167 312.5,481.833 312.5,481.5C 313.401,480.71 314.068,479.71 314.5,478.5C 321.937,470.562 329.604,462.728 337.5,455C 349.928,445.243 361.761,434.743 373,423.5C 377.454,418.372 381.121,412.705 384,406.5C 386.819,387.965 382.153,371.632 370,357.5C 354.573,340.7 336.406,327.7 315.5,318.5C 314.71,317.599 313.71,316.932 312.5,316.5 Z"/></g>
<g><path style="opacity:1" fill="#c48342" d="M 386.5,438.5 C 386.5,473.5 386.5,508.5 386.5,543.5C 385.508,543.672 384.842,543.338 384.5,542.5C 385.833,508.5 385.833,474.5 384.5,440.5C 384.833,439.5 385.5,438.833 386.5,438.5 Z"/></g>
<g><path style="opacity:1" fill="#f48a1c" d="M 383.5,441.5 C 383.5,440.833 383.833,440.5 384.5,440.5C 385.833,474.5 385.833,508.5 384.5,542.5C 384.832,508.663 384.498,474.996 383.5,441.5 Z"/></g>
<g><path style="opacity:1" fill="#fcef00" d="M 383.5,441.5 C 384.498,474.996 384.832,508.663 384.5,542.5C 362.063,525.604 353.563,503.271 359,475.5C 365.448,462.892 373.615,451.558 383.5,441.5 Z"/></g>
<g><path style="opacity:1" fill="#423d30" d="M 382.5,441.5 C 382.833,441.5 383.167,441.5 383.5,441.5C 373.615,451.558 365.448,462.892 359,475.5C 353.563,503.271 362.063,525.604 384.5,542.5C 384.842,543.338 385.508,543.672 386.5,543.5C 387.209,544.404 388.209,544.737 389.5,544.5C 392.167,545.167 394.833,545.833 397.5,546.5C 394.15,546.665 390.817,546.498 387.5,546C 364.062,530.956 353.562,509.456 356,481.5C 361.08,465.671 369.913,452.338 382.5,441.5 Z"/></g>
<g><path style="opacity:1" fill="#f1901c" d="M 312.5,619.5 C 313.167,619.833 313.833,620.167 314.5,620.5C 314.171,633.344 314.505,646.011 315.5,658.5C 314.791,659.404 313.791,659.737 312.5,659.5C 312.5,646.167 312.5,632.833 312.5,619.5 Z"/></g>
<g><path style="opacity:1" fill="#ede104" d="M 384.5,620.5 C 384.5,625.5 384.5,630.5 384.5,635.5C 381.74,633.061 379.74,630.061 378.5,626.5C 379.514,623.486 381.514,621.486 384.5,620.5 Z"/></g>
<g><path style="opacity:1" fill="#d38437" d="M 384.5,620.5 C 385.167,620.5 385.833,620.5 386.5,620.5C 386.5,625.833 386.5,631.167 386.5,636.5C 385.508,636.672 384.842,636.338 384.5,635.5C 384.5,630.5 384.5,625.5 384.5,620.5 Z"/></g>
<g><path style="opacity:1" fill="#faed01" d="M 314.5,620.5 C 326.298,629.594 328.798,640.928 322,654.5C 320.333,655.733 318.833,657.067 317.5,658.5C 316.833,658.5 316.167,658.5 315.5,658.5C 314.505,646.011 314.171,633.344 314.5,620.5 Z"/></g>
<g><path style="opacity:1" fill="#443e2f" d="M 312.5,619.5 C 312.5,619.167 312.5,618.833 312.5,618.5C 312.833,618.5 313.167,618.5 313.5,618.5C 324.045,623.92 328.545,632.587 327,644.5C 326.419,651.227 323.253,656.227 317.5,659.5C 317.5,659.167 317.5,658.833 317.5,658.5C 318.833,657.067 320.333,655.733 322,654.5C 328.798,640.928 326.298,629.594 314.5,620.5C 313.833,620.167 313.167,619.833 312.5,619.5 Z"/></g>
<g><path style="opacity:1" fill="#333940" d="M 312.5,659.5 C 313.791,659.737 314.791,659.404 315.5,658.5C 316.167,658.5 316.833,658.5 317.5,658.5C 317.5,658.833 317.5,659.167 317.5,659.5C 314.257,660.58 310.924,660.747 307.5,660C 302.603,656.726 299.27,652.226 297.5,646.5C 296.122,650.027 295.455,653.694 295.5,657.5C 296.053,671.055 303.053,677.722 316.5,677.5C 315.167,678.167 313.833,678.833 312.5,679.5C 310.073,679.477 307.74,678.977 305.5,678C 292.647,668.014 290.147,655.847 298,641.5C 299.229,646.529 301.229,651.196 304,655.5C 306.397,657.782 309.231,659.116 312.5,659.5 Z"/></g>
<g><path style="opacity:1" fill="#efe304" d="M 384.5,671.5 C 384.5,675.833 384.5,680.167 384.5,684.5C 384.414,686.677 383.747,688.677 382.5,690.5C 382.97,691.463 383.637,691.463 384.5,690.5C 384.5,691.833 384.5,693.167 384.5,694.5C 361.157,697.146 337.823,697.146 314.5,694.5C 314.5,689.5 314.5,684.5 314.5,679.5C 321.015,678.829 326.848,676.496 332,672.5C 334.548,677.966 333.714,682.8 329.5,687C 326.661,688.92 323.661,690.587 320.5,692C 329.941,693.44 338.941,692.106 347.5,688C 352.077,683.675 355.244,678.509 357,672.5C 359.234,679.833 358.067,686.666 353.5,693C 361.593,693.142 368.926,690.809 375.5,686C 379.847,680.628 382.013,674.461 382,667.5C 383.481,668.471 384.315,669.804 384.5,671.5 Z"/></g>
<g><path style="opacity:1" fill="#f1911c" d="M 312.5,679.5 C 313.167,679.5 313.833,679.5 314.5,679.5C 314.5,684.5 314.5,689.5 314.5,694.5C 313.833,694.5 313.167,694.5 312.5,694.5C 312.5,689.5 312.5,684.5 312.5,679.5 Z"/></g>
<g><path style="opacity:1" fill="#3c372e" d="M 385.5,687.5 C 385.833,688.167 386.167,688.833 386.5,689.5C 385.833,689.833 385.167,690.167 384.5,690.5C 383.637,691.463 382.97,691.463 382.5,690.5C 383.747,688.677 384.414,686.677 384.5,684.5C 387.09,680.137 387.09,675.804 384.5,671.5C 384.315,669.804 383.481,668.471 382,667.5C 382.013,674.461 379.847,680.628 375.5,686C 368.926,690.809 361.593,693.142 353.5,693C 358.067,686.666 359.234,679.833 357,672.5C 355.244,678.509 352.077,683.675 347.5,688C 338.941,692.106 329.941,693.44 320.5,692C 323.661,690.587 326.661,688.92 329.5,687C 333.714,682.8 334.548,677.966 332,672.5C 326.848,676.496 321.015,678.829 314.5,679.5C 313.833,679.5 313.167,679.5 312.5,679.5C 313.833,678.833 315.167,678.167 316.5,677.5C 322.472,676.93 327.639,674.597 332,670.5C 337.183,678.983 335.349,685.816 326.5,691C 343.866,692.572 353.699,684.739 356,667.5C 360.438,675.163 360.605,682.997 356.5,691C 373.105,690.057 380.939,681.223 380,664.5C 383,666.167 385.333,668.5 387,671.5C 387.849,677 387.349,682.333 385.5,687.5 Z"/></g>
<g><path style="opacity:1" fill="#cf7522" d="M 384.5,671.5 C 387.09,675.804 387.09,680.137 384.5,684.5C 384.5,680.167 384.5,675.833 384.5,671.5 Z"/></g>
<g><path style="opacity:1" fill="#c17c37" d="M 386.5,689.5 C 386.5,690.833 386.5,692.167 386.5,693.5C 386.158,694.338 385.492,694.672 384.5,694.5C 384.5,693.167 384.5,691.833 384.5,690.5C 385.167,690.167 385.833,689.833 386.5,689.5 Z"/></g>
</svg>
