<svg width="32" height="32" viewBox="0 0 32 32" fill="none" xmlns="http://www.w3.org/2000/svg">
<path d="M31.7208 10.6052C31.2701 10.1412 25.6496 9.63278 19.9314 10.2772C18.791 10.4052 18.7199 10.7306 15.9981 10.8372C13.2772 10.7315 13.2061 10.4061 12.0648 10.2772C6.34653 9.63278 0.726089 10.1421 0.275422 10.6052C0.0514219 10.8372 0.0514219 12.4515 0.275422 12.6835C0.5012 12.9155 1.19542 13.2221 1.52253 14.3075C1.7332 15.007 1.96253 19.5199 3.55009 20.8648C5.12164 22.1963 10.183 21.9466 11.8399 21.0977C14.0941 19.9439 14.4105 15.9555 14.7661 14.3075C14.9465 13.4728 15.799 13.4043 15.9972 13.4043C16.1954 13.4043 17.0479 13.4728 17.2283 14.3075C17.5848 15.9546 17.9012 19.943 20.1545 21.0977C21.8123 21.9466 26.8728 22.1963 28.4443 20.8648C30.0319 19.5199 30.2612 15.007 30.4719 14.3075C30.799 13.223 31.4932 12.9155 31.719 12.6835C31.9448 12.4523 31.9448 10.8372 31.7208 10.6052Z" fill="white"/>
<path d="M13.017 13.9549C12.9299 15.0704 12.5539 18.3691 11.4552 19.362C10.2321 20.4669 5.89965 20.7558 4.53077 19.4011C3.81254 18.6909 3.13788 15.8295 3.19477 13.3424C3.22854 11.85 5.2161 11.5469 8.04988 11.5469C10.8481 11.5469 13.1725 11.9629 13.017 13.9549ZM18.9788 13.9549C19.0659 15.0704 19.4419 18.3691 20.5405 19.362C21.7637 20.4669 26.0961 20.7558 27.465 19.4011C28.1832 18.6909 28.8579 15.8295 28.801 13.3424C28.7672 11.85 26.7797 11.5469 23.9459 11.5469C21.1485 11.5469 18.8232 11.9629 18.9788 13.9549Z" fill="#625D5D"/>
</svg>
