<svg width="40" height="40" viewBox="0 0 40 40" fill="none" xmlns="http://www.w3.org/2000/svg">
<path d="M26.6654 6.66634C26.6654 4.83301 28.1654 3.33301 29.9987 3.33301C31.832 3.33301 33.332 4.83301 33.332 6.66634C33.332 8.49967 31.832 9.99967 29.9987 9.99967C28.1654 9.99967 26.6654 8.49967 26.6654 6.66634ZM34.632 12.633C33.2154 12.0163 31.6654 11.6663 29.9987 11.6663C28.882 11.6663 27.8154 11.833 26.7987 12.133C27.7654 13.0497 28.332 14.333 28.332 15.7163V16.6663H36.6654V15.7163C36.6654 14.3663 35.832 13.1663 34.632 12.633ZM9.9987 9.99967C11.832 9.99967 13.332 8.49967 13.332 6.66634C13.332 4.83301 11.832 3.33301 9.9987 3.33301C8.16536 3.33301 6.66536 4.83301 6.66536 6.66634C6.66536 8.49967 8.16536 9.99967 9.9987 9.99967ZM13.1987 12.133C12.182 11.833 11.1154 11.6663 9.9987 11.6663C8.33203 11.6663 6.78203 12.0163 5.36536 12.633C4.16536 13.1663 3.33203 14.3663 3.33203 15.7163V16.6663H11.6654V15.7163C11.6654 14.333 12.232 13.0497 13.1987 12.133ZM16.6654 6.66634C16.6654 4.83301 18.1654 3.33301 19.9987 3.33301C21.832 3.33301 23.332 4.83301 23.332 6.66634C23.332 8.49967 21.832 9.99967 19.9987 9.99967C18.1654 9.99967 16.6654 8.49967 16.6654 6.66634ZM26.6654 16.6663H13.332V15.7163C13.332 14.3663 14.1654 13.1663 15.3654 12.633C16.782 12.0163 18.332 11.6663 19.9987 11.6663C21.6654 11.6663 23.2154 12.0163 24.632 12.633C25.832 13.1663 26.6654 14.3663 26.6654 15.7163V16.6663ZM24.9987 26.6663C24.9987 24.833 26.4987 23.333 28.332 23.333C30.1654 23.333 31.6654 24.833 31.6654 26.6663C31.6654 28.4997 30.1654 29.9997 28.332 29.9997C26.4987 29.9997 24.9987 28.4997 24.9987 26.6663ZM34.9987 36.6663H21.6654V35.7163C21.6654 34.3663 22.4987 33.1663 23.6987 32.633C25.1154 32.0163 26.6654 31.6663 28.332 31.6663C29.9987 31.6663 31.5487 32.0163 32.9654 32.633C34.1654 33.1663 34.9987 34.3663 34.9987 35.7163V36.6663ZM8.33203 26.6663C8.33203 24.833 9.83203 23.333 11.6654 23.333C13.4987 23.333 14.9987 24.833 14.9987 26.6663C14.9987 28.4997 13.4987 29.9997 11.6654 29.9997C9.83203 29.9997 8.33203 28.4997 8.33203 26.6663ZM18.332 36.6663H4.9987V35.7163C4.9987 34.3663 5.83203 33.1663 7.03203 32.633C8.4487 32.0163 9.9987 31.6663 11.6654 31.6663C13.332 31.6663 14.882 32.0163 16.2987 32.633C17.4987 33.1663 18.332 34.3663 18.332 35.7163V36.6663ZM21.2487 21.6663V18.333H18.7487V21.6663H14.9987L19.9987 26.6663L24.9987 21.6663H21.2487Z" fill="#F9F9F9"/>
</svg>
