<svg width="32" height="32" viewBox="0 0 32 32" fill="none" xmlns="http://www.w3.org/2000/svg">
<path d="M2.66602 15.9998C2.66602 23.3638 8.63535 29.3332 15.9993 29.3332C23.3633 29.3332 29.3327 23.3638 29.3327 15.9998C29.3327 8.63584 23.3633 2.6665 15.9993 2.6665C8.63535 2.6665 2.66602 8.63584 2.66602 15.9998Z" stroke="white" stroke-width="1.5" stroke-linecap="round" stroke-linejoin="round"/>
<path d="M17.3325 2.7334C17.3325 2.7334 21.3325 8.00006 21.3325 16.0001C21.3325 24.0001 17.3325 29.2667 17.3325 29.2667M14.6659 29.2667C14.6659 29.2667 10.6659 24.0001 10.6659 16.0001C10.6659 8.00006 14.6659 2.7334 14.6659 2.7334M3.50586 20.6667H28.4925M3.50586 11.3334H28.4925" stroke="white" stroke-width="1.5" stroke-linecap="round" stroke-linejoin="round"/>
</svg>
