<svg width="1302" height="102" viewBox="0 0 1302 102" fill="none" xmlns="http://www.w3.org/2000/svg">
<path d="M1 9.64L4.25 8.96L7.5 9L10.75 10.1L14 5.89L17.25 6.5L20.5 10.33L23.75 16.53L27 14.56L30.25 10.08L33.5 8.84L36.75 2.9L40 2.76L43.25 1L46.5 5.15L49.75 8.13L53 9.59L56.25 8.74L59.5 15.87L62.75 17.54L66 21.14L69.25 23.63L72.5 23.88L75.75 23.48L79 27.39L82.25 32.96L85.5 31.44L88.75 32.84L92 33.54L95.25 35.78L98.5 31.68L101.75 29.16L105 23.64L108.25 28.54L111.5 26.03L114.75 26.68L118 22.06L121.25 24.09L124.5 26.47L127.75 29.95L131 27.71L134.25 29.9L137.5 25.11L140.75 22.87L144 24.67L147.25 24.19L150.5 30.13L153.75 31.59L157 29.97L160.25 32.28L163.5 36.81L166.75 31.9L170 33.85L173.25 33.34L176.5 33.04L179.75 34.42L183 39.48L186.25 38.46L189.5 38.83L192.75 33.66L196 35.63L199.25 32.83L202.5 31.2L205.75 31.28L209 30.91L212.25 34.68L215.5 34.64L218.75 29.16L222 29.34L225.25 27.13L228.5 27.04L231.75 22.61L235 22.89L238.25 27.75L241.5 31.2L244.75 31.86L248 32.56L251.25 34.14L254.5 30.57L257.75 35.25L261 33.39L264.25 36.72L267.5 39.86L270.75 42.23L274 40.27L277.25 38.34L280.5 38.83L283.75 38.03L287 40.42L290.25 33.92L293.5 29.45L296.75 26.67L300 28.12L303.25 30.24L306.5 34.29L309.75 34.17L313 36.72L316.25 35.4L319.5 39.69L322.75 36.85L326 37.52L329.25 43.33L332.5 47.08L335.75 45.69L339 51.59L342.25 51.33L345.5 59.81L348.75 58.78L352 57.37L355.25 56.6L358.5 58.08L361.75 56.73L365 59.36L368.25 67.79L371.5 73.08L374.75 71.1L378 68.72L381.25 68.11L384.5 70.86L387.75 69.86L391 67.43L394.25 66.57L397.5 61.36L400.75 63.75L404 61.13L407.25 59.48L410.5 60.39L413.75 60.44L417 55.91L420.25 58.74L423.5 58.08L426.75 54.27L430 61.62L433.25 64.4L436.5 58.05L439.75 56.43L443 55.06L446.25 59.86L449.5 57.2L452.75 53.27L456 49.22L459.25 50.9L462.5 51.99L465.75 52.53L469 51.31L472.25 51.96L475.5 45.04L478.75 41.34L482 39.26L485.25 36.79L488.5 36.59L491.75 38.92L495 36.9L498.25 37.37L501.5 38.09L504.75 37.16L508 32.2L511.25 29.51L514.5 29.9L517.75 28.11L521 38.9L524.25 38.87L527.5 36.56L530.75 37.87L534 36.76L537.25 34.04L540.5 33.22L543.75 30.62L547 32.4L550.25 33.53L553.5 33.2L556.75 29.86L560 28.94L563.25 31.03L566.5 26.4L569.75 24.34L573 29.55L576.25 32.74L579.5 41.23L582.75 40.8L586 39.4L589.25 36.65L592.5 33.8L595.75 32.59L599 31.54L602.25 36.35L605.5 35.86L608.75 35.57L612 32.11L615.25 31.9L618.5 30.03L621.75 30.37L625 30.18L628.25 39.13L631.5 42.68L634.75 40.42L638 38.04L641.25 42.16L644.5 41.27L647.75 40.74L651 42.89L654.25 45.73L657.5 37.35L660.75 40.14L664 40.54L667.25 31.14L670.5 33.06L673.75 34.97L677 33.21L680.25 30.14L683.5 24.84L686.75 29.01L690 26.77L693.25 25.59L696.5 20.78L699.75 16.26L703 14.88L706.25 13.77L709.5 19.08L712.75 22.77L716 25.31L719.25 18.84L722.5 26.65L725.75 27L729 29.51L732.25 32.57L735.5 34.91L738.75 38.06L742 38.55L745.25 39.22L748.5 42.46L751.75 41.3L755 46.72L758.25 47.01L761.5 47.71L764.75 47.28L768 48.23L771.25 47.48L774.5 50.72L777.75 58.17L781 62.95L784.25 68.73L787.5 70.68L790.75 72.79L794 73.52L797.25 71.73L800.5 72.44L803.75 70.38L807 73.27L810.25 72.65L813.5 74.4L816.75 72.87L820 76.45L823.25 70.6L826.5 75.46L829.75 78.77L833 80.76L836.25 85.51L839.5 91.21L842.75 95.36L846 96.54L849.25 100.92L852.5 101L855.75 96.3L859 95.73L862.25 90.52L865.5 85.85L868.75 85.32L872 85.08L875.25 89.07L878.5 87.87L881.75 90.04L885 95.88L888.25 95.57L891.5 88.25L894.75 91.49L898 91.89L901.25 91.42L904.5 84.67L907.75 86.05L911 85.57L914.25 89.46L917.5 90.82L920.75 83.65L924 76.47L927.25 76.48L930.5 79.4L933.75 77.9L937 73.9L940.25 74.84L943.5 73.32L946.75 72.97L950 77.91L953.25 80.53L956.5 79.54L959.75 74.51L963 71.06L966.25 69.91L969.5 69.03L972.75 69.1L976 70.66L979.25 68.02L982.5 68.68L985.75 65.12L989 66.03L992.25 66.16L995.5 66.8L998.75 72.28L1002 73.53L1005.25 74.28L1008.5 74.03L1011.75 74.7L1015 67.68L1018.25 69.52L1021.5 71.08L1024.75 68.96L1028 65.33L1031.25 69.51L1034.5 60.74L1037.75 60.63L1041 54.09L1044.25 56.69L1047.5 53.24L1050.75 54.68L1054 57.05L1057.25 52.59L1060.5 53.42L1063.75 51.05L1067 50.47L1070.25 49.95L1073.5 47.84L1076.75 45.02L1080 47.28L1083.25 43.37L1086.5 48.7L1089.75 52.32L1093 52.13L1096.25 52.43L1099.5 50.5L1102.75 49.94L1106 46.37L1109.25 50.49L1112.5 48.69L1115.75 49.86L1119 52.17L1122.25 54.26L1125.5 57.4L1128.75 55.25L1132 71.9L1135.25 64.29L1138.5 68.54L1141.75 64.1L1145 62.88L1148.25 64.75L1151.5 64.16L1154.75 59.57L1158 57.7L1161.25 61.02L1164.5 61.83L1167.75 60.16L1171 61.16L1174.25 59.14L1177.5 60.35L1180.75 63.2L1184 64.04L1187.25 63.74L1190.5 65.18L1193.75 59.2L1197 56.73L1200.25 56.88L1203.5 52.7L1206.75 52.91L1210 57.29L1213.25 57.35L1216.5 53.02L1219.75 56.04L1223 52.56L1226.25 49.84L1229.5 48.36L1232.75 46.12L1236 43.94L1239.25 46.52L1242.5 43.47L1245.75 45.45L1249 42.46L1252.25 37.3L1255.5 40.71L1258.75 39.99L1262 38.18L1265.25 44.22L1268.5 47.93L1271.75 45.97L1275 49.51L1278.25 50.51L1281.5 50.24L1284.75 42.95L1288 44.22L1291.25 44.3L1294.5 46.64L1297.75 45.1L1301 44" stroke="url(#paint0_linear_407_1805)" stroke-opacity="0.6" stroke-linecap="round" stroke-linejoin="round"/>
<defs>
<linearGradient id="paint0_linear_407_1805" x1="651" y1="67" x2="651" y2="159.5" gradientUnits="userSpaceOnUse">
<stop stop-color="#A0A0A0"/>
<stop offset="1" stop-color="#A0A0A0" stop-opacity="0"/>
</linearGradient>
</defs>
</svg>
