<svg width="24" height="25" viewBox="0 0 24 25" fill="none" xmlns="http://www.w3.org/2000/svg">
<path d="M12 12.5C12.55 12.5 13.021 12.304 13.413 11.912C13.805 11.52 14.0007 11.0493 14 10.5C14 9.95 13.804 9.479 13.412 9.087C13.02 8.695 12.5493 8.49933 12 8.5C11.45 8.5 10.979 8.696 10.587 9.088C10.195 9.48 9.99933 9.95067 10 10.5C10 11.05 10.196 11.521 10.588 11.913C10.98 12.305 11.4507 12.5007 12 12.5ZM12 19.85C14.0333 17.9833 15.5417 16.2873 16.525 14.762C17.5083 13.2367 18 11.8827 18 10.7C18 8.88333 17.4207 7.396 16.262 6.238C15.1033 5.08 13.6827 4.50067 12 4.5C10.3167 4.5 8.89567 5.07933 7.737 6.238C6.57833 7.39667 5.99933 8.884 6 10.7C6 11.8833 6.49167 13.2377 7.475 14.763C8.45833 16.2883 9.96667 17.984 12 19.85ZM12 22.5C9.31667 20.2167 7.31267 18.096 5.988 16.138C4.66333 14.18 4.00067 12.3673 4 10.7C4 8.2 4.80433 6.20833 6.413 4.725C8.02167 3.24167 9.884 2.5 12 2.5C14.1167 2.5 15.9793 3.24167 17.588 4.725C19.1967 6.20833 20.0007 8.2 20 10.7C20 12.3667 19.3373 14.1793 18.012 16.138C16.6867 18.0967 14.6827 20.2173 12 22.5Z" fill="#1D1E33"/>
</svg>
