<svg width="552" height="60" viewBox="0 0 552 60" fill="none" xmlns="http://www.w3.org/2000/svg">
<g clip-path="url(#clip0_974_2686)">
<path d="M199.018 50.8975H191.455V15.2543H178.422V8.75344H212.053V15.2543H199.018V50.8975ZM158.016 51.5917C150.621 51.5917 144.779 49.3598 140.526 44.891L144.714 39.2141C148.409 43.0861 152.951 45.022 158.335 45.022C161.221 45.022 163.383 44.4589 164.835 43.3183C166.269 42.1752 166.995 40.8373 166.995 39.2647C166.995 37.6764 166.135 36.4009 164.41 35.4433C162.693 34.4987 160.596 33.7539 158.149 33.2076C155.658 32.6518 153.191 31.9946 150.756 31.2379C148.341 30.5325 146.165 29.2005 144.459 27.3828C142.739 25.5791 141.875 23.2487 141.875 20.3668C141.875 16.8425 143.326 13.8983 146.231 11.5653C149.135 9.21408 152.916 8.05664 157.557 8.05664C164.192 8.05664 169.581 10.0108 173.716 13.9282L169.377 19.4221C166.101 16.2288 161.948 14.6237 156.918 14.6237C154.67 14.6237 152.9 15.1064 151.598 16.0458C150.284 16.9918 149.623 18.266 149.623 19.8724C149.623 20.9312 150.081 21.8084 151.011 22.5194C151.938 23.2487 153.136 23.8235 154.589 24.2569C156.059 24.7007 157.679 25.1328 159.469 25.5662C161.257 25.9762 163.045 26.4887 164.835 27.1025C166.606 27.7124 168.245 28.4585 169.696 29.3525C171.166 30.2296 172.364 31.4546 173.292 33.0078C174.203 34.5662 174.674 36.4347 174.674 38.5705C174.674 42.3737 173.275 45.4866 170.476 47.9364C167.688 50.3681 163.518 51.5917 158.016 51.5917ZM135.799 50.8975H106.293V8.75214H135.799V15.2543H113.854V26.1929H135.362V32.695H113.854V44.394H135.799V50.8975ZM84.6667 50.8975H75.2456L58.3308 8.75214H66.9087L79.9555 42.872L93.0075 8.75214H101.581L84.6667 50.8975ZM53.6077 50.8975H46.3139L23.8447 20.8131V50.8975H16.3007V8.75214H24.0486L46.0624 38.0073V8.75214H53.6077V50.8975ZM1.02344 8.75214H8.58597V50.8975H1.02344V8.75214ZM552.269 50.8975H543.695L540.518 42.8058H520.769L517.597 50.8975H509.02L525.932 8.75214H535.353L552.269 50.8975ZM538.392 36.3036L530.644 16.1989L522.895 36.3036H538.392ZM496.75 8.75344H504.295V50.8988H496.75V8.75344ZM477.705 50.8988H470.143V15.253H457.113V8.75344H490.739V15.2543H477.705V50.8988ZM432.497 51.6604C426.386 51.6604 421.763 50.1008 418.591 46.9749C415.432 43.8659 413.845 39.6293 413.845 34.2833V8.75214H421.461V34.0225C421.461 37.4442 422.419 40.1431 424.347 42.1129C426.253 44.0995 428.972 45.0908 432.497 45.0908C436.029 45.0908 438.747 44.0995 440.635 42.1129C442.528 40.1431 443.488 37.4442 443.488 34.0225V8.75214H451.102V34.2171C451.102 39.6137 449.516 43.8672 446.356 46.9762C443.185 50.1021 438.578 51.6604 432.497 51.6604ZM409.135 50.8975H399.835L385.366 33.144L381.62 37.4429V50.8988H374.075V8.75214H381.62V28.8386L398.483 8.75344H407.834L390.345 28.6583L409.135 50.8975ZM369.365 50.8975H360.774L357.614 42.8058H337.848L334.692 50.8975H326.097L343.012 8.75214H352.45L369.365 50.8975ZM355.471 36.3036L347.722 16.1989L339.99 36.3036H355.471ZM312.291 50.8975H304.727V33.3893L288.017 8.75214H296.658L308.543 26.8196L320.294 8.75214H328.937L312.291 33.3893V50.8975Z" fill="white"/>
<g filter="url(#filter0_d_974_2686)">
<path d="M280.455 24.6216L275.116 19.3897L269.817 14.2124L264.482 8.98055L259.132 14.2124L256.464 16.8257L261.798 22.0536L264.481 19.4403L269.767 24.6216L253.816 40.2392L237.843 24.6216L243.198 19.3897L245.864 22.0069L251.196 16.7751L243.199 8.93384L227.162 24.6216L232.511 29.8482L248.462 45.471L253.817 50.6977L259.15 45.471L275.117 29.8482L280.455 24.6216Z" fill="url(#paint0_linear_974_2686)" shape-rendering="crispEdges"/>
</g>
</g>
<defs>
<filter id="filter0_d_974_2686" x="223.162" y="8.93384" width="61.293" height="51.7638" filterUnits="userSpaceOnUse" color-interpolation-filters="sRGB">
<feFlood flood-opacity="0" result="BackgroundImageFix"/>
<feColorMatrix in="SourceAlpha" type="matrix" values="0 0 0 0 0 0 0 0 0 0 0 0 0 0 0 0 0 0 127 0" result="hardAlpha"/>
<feOffset dy="6"/>
<feGaussianBlur stdDeviation="2"/>
<feComposite in2="hardAlpha" operator="out"/>
<feColorMatrix type="matrix" values="0 0 0 0 0 0 0 0 0 0 0 0 0 0 0 0 0 0 0.25 0"/>
<feBlend mode="normal" in2="BackgroundImageFix" result="effect1_dropShadow_974_2686"/>
<feBlend mode="normal" in="SourceGraphic" in2="effect1_dropShadow_974_2686" result="shape"/>
</filter>
<linearGradient id="paint0_linear_974_2686" x1="253.808" y1="8.93384" x2="253.808" y2="50.6977" gradientUnits="userSpaceOnUse">
<stop stop-color="#FA3737"/>
<stop offset="0.382564" stop-color="#FF0000" stop-opacity="0.752083"/>
<stop offset="0.664583" stop-color="#B80000"/>
<stop offset="1" stop-color="#960000"/>
</linearGradient>
<clipPath id="clip0_974_2686">
<rect width="552" height="60" fill="white"/>
</clipPath>
</defs>
</svg>
