<svg width="40" height="40" viewBox="0 0 40 40" fill="none" xmlns="http://www.w3.org/2000/svg">
<path d="M15 5L5.6 8.16667C5.26667 8.28333 5 8.58333 5 8.96667V34.1667C5 34.3877 5.0878 34.5996 5.24408 34.7559C5.40036 34.9122 5.61232 35 5.83333 35C5.91667 35 6 35 6.1 34.95L15 31.5L21.9333 33.9333C21.7667 33.2 21.6667 32.4333 21.6667 31.6667C21.6667 31.2833 21.6667 30.9 21.7333 30.5L15 28.1667V8.33333L25 11.8333V24.2667C26.7833 22.6667 29.1167 21.6667 31.6667 21.6667C32.8333 21.6667 33.95 21.8833 35 22.2667V5.83333C35 5.61232 34.9122 5.40036 34.7559 5.24408C34.5996 5.0878 34.3877 5 34.1667 5H33.9L25 8.5L15 5ZM30 25V30H25V33.3333H30V38.3333H33.3333V33.3333H38.3333V30H33.3333V25H30Z" fill="#F9F9F9"/>
</svg>
