<svg width="32" height="32" viewBox="0 0 32 32" fill="none" xmlns="http://www.w3.org/2000/svg">
<path d="M29.2946 24.44C29.2946 24.92 29.188 25.4133 28.9613 25.8933C28.7346 26.3733 28.4413 26.8266 28.0546 27.2533C27.4013 27.9733 26.6813 28.4933 25.868 28.8266C25.068 29.16 24.2013 29.3333 23.268 29.3333C21.908 29.3333 20.4546 29.0133 18.9213 28.36C17.388 27.7066 15.8546 26.8266 14.3346 25.72C12.8013 24.6 11.348 23.36 9.9613 21.9866C8.58797 20.6 7.34797 19.1466 6.2413 17.6266C5.14797 16.1066 4.26797 14.5866 3.62797 13.08C2.98797 11.56 2.66797 10.1066 2.66797 8.71996C2.66797 7.81329 2.82797 6.94663 3.14797 6.14663C3.46797 5.33329 3.97464 4.58663 4.6813 3.91996C5.53464 3.07996 6.46797 2.66663 7.45464 2.66663C7.82797 2.66663 8.2013 2.74663 8.53464 2.90663C8.8813 3.06663 9.18797 3.30663 9.42797 3.65329L12.5213 8.01329C12.7613 8.34663 12.9346 8.65329 13.0546 8.94663C13.1746 9.22663 13.2413 9.50663 13.2413 9.75996C13.2413 10.08 13.148 10.4 12.9613 10.7066C12.788 11.0133 12.5346 11.3333 12.2146 11.6533L11.2013 12.7066C11.0546 12.8533 10.988 13.0266 10.988 13.24C10.988 13.3466 11.0013 13.44 11.028 13.5466C11.068 13.6533 11.108 13.7333 11.1346 13.8133C11.3746 14.2533 11.788 14.8266 12.3746 15.52C12.9746 16.2133 13.6146 16.92 14.308 17.6266C15.028 18.3333 15.7213 18.9866 16.428 19.5866C17.1213 20.1733 17.6946 20.5733 18.148 20.8133C18.2146 20.84 18.2946 20.88 18.388 20.92C18.4946 20.96 18.6013 20.9733 18.7213 20.9733C18.948 20.9733 19.1213 20.8933 19.268 20.7466L20.2813 19.7466C20.6146 19.4133 20.9346 19.16 21.2413 19C21.548 18.8133 21.8546 18.72 22.188 18.72C22.4413 18.72 22.708 18.7733 23.0013 18.8933C23.2946 19.0133 23.6013 19.1866 23.9346 19.4133L28.348 22.5466C28.6946 22.7866 28.9346 23.0666 29.0813 23.4C29.2146 23.7333 29.2946 24.0666 29.2946 24.44Z" stroke="#1D1E33" stroke-width="1.5" stroke-miterlimit="10"/>
</svg>
