<svg width="24" height="24" viewBox="0 0 24 24" fill="none" xmlns="http://www.w3.org/2000/svg">
<path d="M8.62533 12L7.12233 14.004C6.91234 14.284 6.80683 14.6285 6.82409 14.9781C6.84135 15.3276 6.98028 15.6601 7.21683 15.918L10.0548 19.014C10.3383 19.3238 10.7388 19.5 11.1596 19.5H14.6253C16.4253 19.5 17.6253 18 17.6253 16.5V10.0718C17.6253 8.35726 15.3753 8.35726 15.3753 10.0718V10.5" stroke="#858585" stroke-linecap="round" stroke-linejoin="round"/>
<path d="M15.375 10.5V9.2145C15.375 7.5 13.125 7.5 13.125 9.2145V10.5V8.625C13.125 6.9105 10.875 6.9105 10.875 8.625V10.5V5.62425C10.8748 5.32601 10.7562 5.04006 10.5452 4.82924C10.3343 4.61842 10.0482 4.5 9.75 4.5C9.45163 4.5 9.16548 4.61853 8.9545 4.8295C8.74353 5.04048 8.625 5.32663 8.625 5.625V14.25" stroke="#858585" stroke-linecap="round" stroke-linejoin="round"/>
<path d="M13.5 3.75H18.75M18.75 3.75L17.25 2.25M18.75 3.75L17.25 5.25" stroke="#858585" stroke-width="0.5"/>
<path d="M6 3.75H0.75M0.75 3.75L2.25 2.25M0.75 3.75L2.25 5.25" stroke="#858585" stroke-width="0.5"/>
</svg>
