<svg width="32" height="32" viewBox="0 0 32 32" fill="none" xmlns="http://www.w3.org/2000/svg">
<path fill-rule="evenodd" clip-rule="evenodd" d="M23.3317 19.176C22.9325 18.9774 20.9751 18.02 20.6107 17.8867C20.2463 17.7547 19.981 17.6894 19.7144 18.0867C19.4491 18.4814 18.6868 19.3747 18.455 19.6387C18.2219 19.904 17.9901 19.936 17.5922 19.7387C17.1943 19.5387 15.9108 19.1214 14.3902 17.772C13.2072 16.7214 12.4074 15.424 12.1756 15.0267C11.9438 14.6307 12.1502 14.416 12.3498 14.2187C12.5293 14.0414 12.7477 13.756 12.9473 13.5254C13.1469 13.2934 13.2126 13.128 13.3452 12.8627C13.4792 12.5987 13.4122 12.368 13.3117 12.1694C13.2126 11.9707 12.4168 10.02 12.0845 9.22671C11.7616 8.45471 11.4334 8.56004 11.1896 8.54671C10.9565 8.53604 10.6912 8.53337 10.4259 8.53337C10.1606 8.53337 9.72925 8.63204 9.36483 9.02937C8.99908 9.42537 7.9715 10.384 7.9715 12.3347C7.9715 14.284 9.39699 16.168 9.59661 16.4334C9.79623 16.6974 12.4034 20.7 16.3972 22.416C17.3484 22.824 18.0893 23.068 18.6667 23.2493C19.6206 23.552 20.4888 23.5093 21.1747 23.4067C21.9384 23.2933 23.53 22.448 23.8622 21.5227C24.1932 20.5974 24.1932 19.804 24.094 19.6387C23.9949 19.4734 23.7296 19.3747 23.3304 19.176H23.3317ZM16.0676 29.0467H16.0622C13.6901 29.0471 11.3616 28.4125 9.32062 27.2093L8.83832 26.924L3.82498 28.2333L5.16339 23.3693L4.84855 22.8707C3.52238 20.7698 2.82056 18.3384 2.82419 15.8574C2.82687 8.59071 8.76731 2.67872 16.073 2.67872C19.6099 2.67872 22.9351 4.05205 25.4351 6.54271C26.6682 7.76482 27.6455 9.21813 28.3106 10.8186C28.9756 12.419 29.3152 14.1348 29.3097 15.8667C29.307 23.1333 23.3665 29.0467 16.0676 29.0467ZM27.3375 4.65071C25.8614 3.17195 24.105 1.99943 22.1703 1.20112C20.2355 0.402806 18.1607 -0.00543499 16.0663 5.46366e-05C7.28555 5.46366e-05 0.136654 7.11338 0.133975 15.856C0.129906 18.6384 0.863299 21.3725 2.26015 23.7827L0 32L8.44577 29.7947C10.7821 31.0615 13.4003 31.7253 16.0609 31.7253H16.0676C24.8483 31.7253 31.9972 24.612 31.9999 15.868C32.0063 13.7844 31.5976 11.7202 30.7974 9.79475C29.9971 7.86933 28.8211 6.12094 27.3375 4.65071Z" fill="#232323"/>
</svg>
